999
dxflib 3.7.5.0
  0
SECTION
  2
HEADER
  9
$ACADVER
  1
AC1015
  9
$HANDSEED
  5
FFFF
  9
$DIMADEC
 70
0
  9
$DIMASZ
 40
2.5
  9
$DIMAUNIT
 70
0
  9
$DIMAZIN
 70
2
  9
$DIMDEC
 70
4
  9
$DIMEXE
 40
1.25
  9
$DIMEXO
 40
0.625
  9
$DIMGAP
 40
0.625
  9
$DIMLUNIT
 70
2
  9
$DIMSCALE
 40
1.0
  9
$DIMTSZ
 40
0.0
  9
$DIMTXT
 40
2.5
  9
$DIMZIN
 70
8
  9
$DWGCODEPAGE
  3
ANSI_1252
  9
$INSUNITS
 70
4
  9
$LTSCALE
 40
1
  0
ENDSEC
  0
SECTION
  2
TABLES
  0
TABLE
  2
VPORT
  5
8
100
AcDbSymbolTable
 70
1
  0
VPORT
  5
30
100
AcDbSymbolTableRecord
100
AcDbViewportTableRecord
  2
*Active
 70
0
 10
0.0
 20
0.0
 11
1.0
 21
1.0
 12
286.3055555555554861
 22
148.5
 13
0.0
 23
0.0
 14
10.0
 24
10.0
 15
10.0
 25
10.0
 16
0.0
 26
0.0
 36
1.0
 17
0.0
 27
0.0
 37
0.0
 40
297.0
 41
1.92798353909465
 42
50.0
 43
0.0
 44
0.0
 50
0.0
 51
0.0
 71
0
 72
100
 73
1
 74
3
 75
1
 76
1
 77
0
 78
0
281
0
 65
1
110
0.0
120
0.0
130
0.0
111
1.0
121
0.0
131
0.0
112
0.0
122
1.0
132
0.0
 79
0
146
0.0
  0
ENDTAB
  0
TABLE
  2
LTYPE
  5
5
100
AcDbSymbolTable
 70
41
  0
LTYPE
  5
16
100
AcDbSymbolTableRecord
100
AcDbLinetypeTableRecord
  2
Continuous
 70
0
  3
Solid line
 72
65
 73
0
 40
0.0
  0
LTYPE
  5
31
100
AcDbSymbolTableRecord
100
AcDbLinetypeTableRecord
  2
ACAD_ISO15W100
 70
0
  3
ISO double-dash triple-dot __ __ . . . __ __ . .
 72
65
 73
10
 40
39.0000000000000071
 49
12.0
 74
0
 49
-3.0
 74
0
 49
12.0
 74
0
 49
-2.9500000000000002
 74
0
 49
0.1
 74
0
 49
-2.9000000000000004
 74
0
 49
0.1
 74
0
 49
-2.9000000000000004
 74
0
 49
0.1
 74
0
 49
-2.9500000000000002
 74
0
  0
LTYPE
  5
32
100
AcDbSymbolTableRecord
100
AcDbLinetypeTableRecord
  2
DIVIDE
 70
0
  3
Divide ____ . . ____ . . ____ . . ____ . . ____
 72
65
 73
6
 40
31.7500000000000036
 49
12.6999999999999993
 74
0
 49
-6.2999999999999998
 74
0
 49
0.1
 74
0
 49
-6.25
 74
0
 49
0.1
 74
0
 49
-6.2999999999999998
 74
0
  0
LTYPE
  5
33
100
AcDbSymbolTableRecord
100
AcDbLinetypeTableRecord
  2
ACAD_ISO10W100
 70
0
  3
ISO dash dot __ . __ . __ . __ . __ . __ . __ . 
 72
65
 73
4
 40
18.0
 49
12.0
 74
0
 49
-2.9500000000000002
 74
0
 49
0.1
 74
0
 49
-2.9500000000000002
 74
0
  0
LTYPE
  5
34
100
AcDbSymbolTableRecord
100
AcDbLinetypeTableRecord
  2
ACAD_ISO04W100
 70
0
  3
ISO long-dash dot ____ . ____ . ____ . ____ . _
 72
65
 73
4
 40
30.0
 49
24.0
 74
0
 49
-2.9500000000000002
 74
0
 49
0.1
 74
0
 49
-2.9500000000000002
 74
0
  0
LTYPE
  5
35
100
AcDbSymbolTableRecord
100
AcDbLinetypeTableRecord
  2
CENTER2
 70
0
  3
Center (.5x) ___ _ ___ _ ___ _ ___ _ ___ _ ___
 72
65
 73
4
 40
28.5750000000000028
 49
19.0500000000000007
 74
0
 49
-3.1749999999999998
 74
0
 49
3.1749999999999998
 74
0
 49
-3.1749999999999998
 74
0
  0
LTYPE
  5
36
100
AcDbSymbolTableRecord
100
AcDbLinetypeTableRecord
  2
ACAD_ISO11W100
 70
0
  3
ISO double-dash dot __ __ . __ __ . __ __ . __ _
 72
65
 73
6
 40
33.0
 49
12.0
 74
0
 49
-3.0
 74
0
 49
12.0
 74
0
 49
-2.9500000000000002
 74
0
 49
0.1
 74
0
 49
-2.9500000000000002
 74
0
  0
LTYPE
  5
37
100
AcDbSymbolTableRecord
100
AcDbLinetypeTableRecord
  2
HIDDEN2
 70
0
  3
Hidden (.5x) _ _ _ _ _ _ _ _ _ _ _ _ _ _ _ _ _ 
 72
65
 73
2
 40
4.7624999999999993
 49
3.1749999999999998
 74
0
 49
-1.5874999999999999
 74
0
  0
LTYPE
  5
38
100
AcDbSymbolTableRecord
100
AcDbLinetypeTableRecord
  2
BORDERX2
 70
0
  3
Border (2x) ____  ____  .  ____  ____  .  ___
 72
65
 73
6
 40
88.8999999999999773
 49
25.3999999999999986
 74
0
 49
-12.6999999999999993
 74
0
 49
25.3999999999999986
 74
0
 49
-12.6499999999999986
 74
0
 49
0.1
 74
0
 49
-12.6499999999999986
 74
0
  0
LTYPE
  5
39
100
AcDbSymbolTableRecord
100
AcDbLinetypeTableRecord
  2
ACAD_ISO05W100
 70
0
  3
ISO long-dash double-dot ____ .. ____ .. ____ . 
 72
65
 73
6
 40
33.0000000000000071
 49
24.0
 74
0
 49
-2.9500000000000002
 74
0
 49
0.1
 74
0
 49
-2.9000000000000004
 74
0
 49
0.1
 74
0
 49
-2.9500000000000002
 74
0
  0
LTYPE
  5
3A
100
AcDbSymbolTableRecord
100
AcDbLinetypeTableRecord
  2
DASHDOTX2
 70
0
  3
Dash dot (2x) ____  .  ____  .  ____  .  ___
 72
65
 73
4
 40
50.7999999999999972
 49
25.3999999999999986
 74
0
 49
-12.6499999999999986
 74
0
 49
0.1
 74
0
 49
-12.6499999999999986
 74
0
  0
LTYPE
  5
3B
100
AcDbSymbolTableRecord
100
AcDbLinetypeTableRecord
  2
HIDDENX2
 70
0
  3
Hidden (2x) ____ ____ ____ ____ ____ ____ ____ 
 72
65
 73
2
 40
19.0499999999999972
 49
12.6999999999999993
 74
0
 49
-6.3499999999999996
 74
0
  0
LTYPE
  5
3C
100
AcDbSymbolTableRecord
100
AcDbLinetypeTableRecord
  2
CENTERX2
 70
0
  3
Center (2x) ________  __  ________  __  _____
 72
65
 73
4
 40
101.6000000000000085
 49
63.5
 74
0
 49
-12.6999999999999993
 74
0
 49
12.6999999999999993
 74
0
 49
-12.6999999999999993
 74
0
  0
LTYPE
  5
3D
100
AcDbSymbolTableRecord
100
AcDbLinetypeTableRecord
  2
BORDER2
 70
0
  3
Border (.5x) __.__.__.__.__.__.__.__.__.__.__.
 72
65
 73
6
 40
22.2250000000000014
 49
6.3499999999999996
 74
0
 49
-3.1749999999999998
 74
0
 49
6.3499999999999996
 74
0
 49
-3.125
 74
0
 49
0.1
 74
0
 49
-3.125
 74
0
  0
LTYPE
  5
3E
100
AcDbSymbolTableRecord
100
AcDbLinetypeTableRecord
  2
DASHDOT2
 70
0
  3
Dash dot (.5x) _._._._._._._._._._._._._._._.
 72
65
 73
4
 40
12.6999999999999993
 49
6.3499999999999996
 74
0
 49
-3.125
 74
0
 49
0.1
 74
0
 49
-3.125
 74
0
  0
LTYPE
  5
3F
100
AcDbSymbolTableRecord
100
AcDbLinetypeTableRecord
  2
ACAD_ISO12W100
 70
0
  3
ISO dash double-dot __ . . __ . . __ . . __ . . 
 72
65
 73
6
 40
21.0
 49
12.0
 74
0
 49
-2.9500000000000002
 74
0
 49
0.1
 74
0
 49
-2.9000000000000004
 74
0
 49
0.1
 74
0
 49
-2.9500000000000002
 74
0
  0
LTYPE
  5
40
100
AcDbSymbolTableRecord
100
AcDbLinetypeTableRecord
  2
ACAD_ISO07W100
 70
0
  3
ISO dot . . . . . . . . . . . . . . . . . . . . 
 72
65
 73
2
 40
3.0
 49
0.1
 74
0
 49
-2.8999999999999999
 74
0
  0
LTYPE
  5
41
100
AcDbSymbolTableRecord
100
AcDbLinetypeTableRecord
  2
HIDDEN
 70
0
  3
Hidden __ __ __ __ __ __ __ __ __ __ __ __ __ __
 72
65
 73
2
 40
9.5249999999999986
 49
6.3499999999999996
 74
0
 49
-3.1749999999999998
 74
0
  0
LTYPE
  5
42
100
AcDbSymbolTableRecord
100
AcDbLinetypeTableRecord
  2
ACAD_ISO06W100
 70
0
  3
ISO long-dash triple-dot ____ ... ____ ... ____
 72
65
 73
8
 40
36.0000000000000071
 49
24.0
 74
0
 49
-2.9500000000000002
 74
0
 49
0.1
 74
0
 49
-2.9000000000000004
 74
0
 49
0.1
 74
0
 49
-2.9000000000000004
 74
0
 49
0.1
 74
0
 49
-2.9500000000000002
 74
0
  0
LTYPE
  5
43
100
AcDbSymbolTableRecord
100
AcDbLinetypeTableRecord
  2
CENTER
 70
0
  3
Center ____ _ ____ _ ____ _ ____ _ ____ _ ____
 72
65
 73
4
 40
50.8000000000000043
 49
31.75
 74
0
 49
-6.3499999999999996
 74
0
 49
6.3499999999999996
 74
0
 49
-6.3499999999999996
 74
0
  0
LTYPE
  5
44
100
AcDbSymbolTableRecord
100
AcDbLinetypeTableRecord
  2
DOTX2
 70
0
  3
Dot (2x) .  .  .  .  .  .  .  .  .  .  .  .  .  .
 72
65
 73
2
 40
12.6999999999999993
 49
0.1
 74
0
 49
-12.5999999999999996
 74
0
  0
LTYPE
  5
45
100
AcDbSymbolTableRecord
100
AcDbLinetypeTableRecord
  2
PHANTOM
 70
0
  3
Phantom ______  __  __  ______  __  __  ______ 
 72
65
 73
6
 40
63.5000000000000071
 49
31.75
 74
0
 49
-6.3499999999999996
 74
0
 49
6.3499999999999996
 74
0
 49
-6.3499999999999996
 74
0
 49
6.3499999999999996
 74
0
 49
-6.3499999999999996
 74
0
  0
LTYPE
  5
46
100
AcDbSymbolTableRecord
100
AcDbLinetypeTableRecord
  2
ACAD_ISO08W100
 70
0
  3
ISO long-dash short-dash ____ __ ____ __ ____ _
 72
65
 73
4
 40
36.0
 49
24.0
 74
0
 49
-3.0
 74
0
 49
6.0
 74
0
 49
-3.0
 74
0
  0
LTYPE
  5
47
100
AcDbSymbolTableRecord
100
AcDbLinetypeTableRecord
  2
DASHEDX2
 70
0
  3
Dashed (2x) ____  ____  ____  ____  ____  ___
 72
65
 73
2
 40
38.0999999999999943
 49
25.3999999999999986
 74
0
 49
-12.6999999999999993
 74
0
  0
LTYPE
  5
48
100
AcDbSymbolTableRecord
100
AcDbLinetypeTableRecord
  2
ACAD_ISO02W100
 70
0
  3
ISO dash __ __ __ __ __ __ __ __ __ __ __ __ __
 72
65
 73
2
 40
15.0
 49
12.0
 74
0
 49
-3.0
 74
0
  0
LTYPE
  5
49
100
AcDbSymbolTableRecord
100
AcDbLinetypeTableRecord
  2
PHANTOM2
 70
0
  3
Phantom (.5x) ___ _ _ ___ _ _ ___ _ _ ___ _ _
 72
65
 73
6
 40
31.7500000000000036
 49
15.875
 74
0
 49
-3.1749999999999998
 74
0
 49
3.1749999999999998
 74
0
 49
-3.1749999999999998
 74
0
 49
3.1749999999999998
 74
0
 49
-3.1749999999999998
 74
0
  0
LTYPE
  5
4A
100
AcDbSymbolTableRecord
100
AcDbLinetypeTableRecord
  2
DASHED2
 70
0
  3
Dashed (.5x) _ _ _ _ _ _ _ _ _ _ _ _ _ _ _ _ _ 
 72
65
 73
2
 40
9.5249999999999986
 49
6.3499999999999996
 74
0
 49
-3.1749999999999998
 74
0
  0
LTYPE
  5
4B
100
AcDbSymbolTableRecord
100
AcDbLinetypeTableRecord
  2
ACAD_ISO09W100
 70
0
  3
ISO long-dash double-short-dash ____ __ __ ____
 72
65
 73
6
 40
45.0
 49
24.0
 74
0
 49
-3.0
 74
0
 49
6.0
 74
0
 49
-3.0
 74
0
 49
6.0
 74
0
 49
-3.0
 74
0
  0
LTYPE
  5
4C
100
AcDbSymbolTableRecord
100
AcDbLinetypeTableRecord
  2
ACAD_ISO13W100
 70
0
  3
ISO double-dash double-dot __ __ . . __ __ . . _
 72
65
 73
8
 40
36.0000000000000071
 49
12.0
 74
0
 49
-3.0
 74
0
 49
12.0
 74
0
 49
-2.9500000000000002
 74
0
 49
0.1
 74
0
 49
-2.9000000000000004
 74
0
 49
0.1
 74
0
 49
-2.9500000000000002
 74
0
  0
LTYPE
  5
4D
100
AcDbSymbolTableRecord
100
AcDbLinetypeTableRecord
  2
DOT2
 70
0
  3
Dot (.5x) ........................................
 72
65
 73
2
 40
3.1749999999999998
 49
0.1
 74
0
 49
-3.0749999999999997
 74
0
  0
LTYPE
  5
4E
100
AcDbSymbolTableRecord
100
AcDbLinetypeTableRecord
  2
DASHED
 70
0
  3
Dashed __ __ __ __ __ __ __ __ __ __ __ __ __ _
 72
65
 73
2
 40
19.0499999999999972
 49
12.6999999999999993
 74
0
 49
-6.3499999999999996
 74
0
  0
LTYPE
  5
4F
100
AcDbSymbolTableRecord
100
AcDbLinetypeTableRecord
  2
ACAD_ISO14W100
 70
0
  3
ISO dash triple-dot __ . . . __ . . . __ . . . _
 72
65
 73
8
 40
24.0000000000000036
 49
12.0
 74
0
 49
-2.9500000000000002
 74
0
 49
0.1
 74
0
 49
-2.9000000000000004
 74
0
 49
0.1
 74
0
 49
-2.9000000000000004
 74
0
 49
0.1
 74
0
 49
-2.9500000000000002
 74
0
  0
LTYPE
  5
15
100
AcDbSymbolTableRecord
100
AcDbLinetypeTableRecord
  2
BYLAYER
 70
0
  3

 72
65
 73
0
 40
0.0
  0
LTYPE
  5
50
100
AcDbSymbolTableRecord
100
AcDbLinetypeTableRecord
  2
PHANTOMX2
 70
0
  3
Phantom (2x) ____________    ____    ____   _
 72
65
 73
6
 40
127.0000000000000142
 49
63.5
 74
0
 49
-12.6999999999999993
 74
0
 49
12.6999999999999993
 74
0
 49
-12.6999999999999993
 74
0
 49
12.6999999999999993
 74
0
 49
-12.6999999999999993
 74
0
  0
LTYPE
  5
14
100
AcDbSymbolTableRecord
100
AcDbLinetypeTableRecord
  2
BYBLOCK
 70
0
  3

 72
65
 73
0
 40
0.0
  0
LTYPE
  5
51
100
AcDbSymbolTableRecord
100
AcDbLinetypeTableRecord
  2
DIVIDEX2
 70
0
  3
Divide (2x) ________  .  .  ________  .  .  _
 72
65
 73
6
 40
63.5
 49
25.3999999999999986
 74
0
 49
-12.6499999999999986
 74
0
 49
0.1
 74
0
 49
-12.5999999999999979
 74
0
 49
0.1
 74
0
 49
-12.6499999999999986
 74
0
  0
LTYPE
  5
52
100
AcDbSymbolTableRecord
100
AcDbLinetypeTableRecord
  2
BORDER
 70
0
  3
Border __ __ . __ __ . __ __ . __ __ . __ __ .
 72
65
 73
6
 40
44.4499999999999957
 49
12.6999999999999993
 74
0
 49
-6.3499999999999996
 74
0
 49
12.6999999999999993
 74
0
 49
-6.2999999999999998
 74
0
 49
0.1
 74
0
 49
-6.2999999999999998
 74
0
  0
LTYPE
  5
53
100
AcDbSymbolTableRecord
100
AcDbLinetypeTableRecord
  2
DIVIDE2
 70
0
  3
Divide (.5x) __..__..__..__..__..__..__..__.._
 72
65
 73
6
 40
15.8749999999999982
 49
6.3499999999999996
 74
0
 49
-3.125
 74
0
 49
0.1
 74
0
 49
-3.0750000000000002
 74
0
 49
0.1
 74
0
 49
-3.125
 74
0
  0
LTYPE
  5
54
100
AcDbSymbolTableRecord
100
AcDbLinetypeTableRecord
  2
DOT
 70
0
  3
Dot . . . . . . . . . . . . . . . . . . . . . . . .
 72
65
 73
2
 40
6.3499999999999996
 49
0.1
 74
0
 49
-6.25
 74
0
  0
LTYPE
  5
55
100
AcDbSymbolTableRecord
100
AcDbLinetypeTableRecord
  2
DASHDOT
 70
0
  3
Dash dot __ . __ . __ . __ . __ . __ . __ . __
 72
65
 73
4
 40
25.4000000000000021
 49
12.6999999999999993
 74
0
 49
-6.2999999999999998
 74
0
 49
0.1
 74
0
 49
-6.2999999999999998
 74
0
  0
LTYPE
  5
56
100
AcDbSymbolTableRecord
100
AcDbLinetypeTableRecord
  2
ACAD_ISO03W100
 70
0
  3
ISO dash space __    __    __    __    __    __
 72
65
 73
2
 40
30.0
 49
12.0
 74
0
 49
-18.0
 74
0
  0
ENDTAB
  0
TABLE
  2
LAYER
  5
2
100
AcDbSymbolTable
 70
4
  0
LAYER
  5
57
100
AcDbSymbolTableRecord
100
AcDbLayerTableRecord
  2
wing
 70
0
 62
3
420
65280
  6
Continuous
370
50
390
F
  0
LAYER
  5
58
100
AcDbSymbolTableRecord
100
AcDbLayerTableRecord
  2
fuselage-1
 70
0
 62
3
420
65280
  6
Continuous
370
50
390
F
  0
LAYER
  5
10
100
AcDbSymbolTableRecord
100
AcDbLayerTableRecord
  2
0
 70
1
 62
-7
420
16777215
  6
Continuous
370
25
390
F
  0
LAYER
  5
59
100
AcDbSymbolTableRecord
100
AcDbLayerTableRecord
  2
fuselage-2
 70
0
 62
7
420
0
  6
Continuous
370
25
390
F
  0
ENDTAB
  0
TABLE
  2
STYLE
  5
3
100
AcDbSymbolTable
 70
1
  0
STYLE
  5
5A
100
AcDbSymbolTableRecord
100
AcDbTextStyleTableRecord
  2
Standard
 70
0
 40
0.0
 41
1.0
 50
0.0
 71
0
 42
2.5
  3

  4

1001
ACAD
1000
txt
1071
0
  0
ENDTAB
  0
TABLE
  2
VIEW
  5
6
100
AcDbSymbolTable
 70
0
  0
ENDTAB
  0
TABLE
  2
UCS
  5
7
100
AcDbSymbolTable
 70
0
  0
ENDTAB
  0
TABLE
  2
APPID
  5
9
100
AcDbSymbolTable
 70
1
  0
APPID
  5
12
100
AcDbSymbolTableRecord
100
AcDbRegAppTableRecord
  2
ACAD
 70
0
  0
APPID
  5
5B
100
AcDbSymbolTableRecord
100
AcDbRegAppTableRecord
  2
QCAD
 70
0
  0
ENDTAB
  0
TABLE
  2
DIMSTYLE
  5
A
100
AcDbSymbolTable
 70
1
100
AcDbDimStyleTable
 71
0
  0
DIMSTYLE
105
27
100
AcDbSymbolTableRecord
100
AcDbDimStyleTableRecord
  2
Standard
 41
2.5
 42
0.625
 43
3.75
 44
1.25
 70
0
 73
0
 74
0
 77
1
 78
8
140
2.5
141
2.5
143
0.03937007874016
147
0.625
171
3
172
1
271
2
272
2
274
3
278
44
283
0
284
8
340
5A
  0
ENDTAB
  0
TABLE
  2
BLOCK_RECORD
  5
1
100
AcDbSymbolTable
 70
1
  0
BLOCK_RECORD
  5
1F
100
AcDbSymbolTableRecord
100
AcDbBlockTableRecord
  2
*Model_Space
340
22
  0
BLOCK_RECORD
  5
1B
100
AcDbSymbolTableRecord
100
AcDbBlockTableRecord
  2
*Paper_Space
340
1E
  0
BLOCK_RECORD
  5
23
100
AcDbSymbolTableRecord
100
AcDbBlockTableRecord
  2
*Paper_Space0
340
26
  0
ENDTAB
  0
ENDSEC
  0
SECTION
  2
BLOCKS
  0
BLOCK
  5
20
100
AcDbEntity
  8
0
100
AcDbBlockBegin
  2
*Model_Space
 70
0
 10
0.0
 20
0.0
 30
0.0
  3
*Model_Space
  1

  0
ENDBLK
  5
21
100
AcDbEntity
  8
0
100
AcDbBlockEnd
  0
BLOCK
  5
1C
100
AcDbEntity
 67
1
  8
0
100
AcDbBlockBegin
  2
*Paper_Space
 70
0
 10
0.0
 20
0.0
 30
0.0
  3
*Paper_Space
  1

  0
ENDBLK
  5
1D
100
AcDbEntity
 67
1
  8
0
100
AcDbBlockEnd
  0
BLOCK
  5
24
100
AcDbEntity
  8
0
100
AcDbBlockBegin
  2
*Paper_Space0
 70
0
 10
0.0
 20
0.0
 30
0.0
  3
*Paper_Space0
  1

  0
ENDBLK
  5
25
100
AcDbEntity
  8
0
100
AcDbBlockEnd
  0
ENDSEC
  0
SECTION
  2
ENTITIES
  0
IMAGE
  5
5C
  8
0
 62
256
370
-1
 48
1.0
  6
BYLAYER
100
AcDbEntity
100
AcDbRasterImage
 90
0
 10
-68.6292712490264023
 20
-852.9551339811649768
 30
0.0
 11
0.6
 21
0.0
 31
0.0
 12
0.0
 22
0.6
 32
0.0
 13
720.0
 23
988.0
340
5D
 70
15
280
0
281
50
282
50
283
0
  0
LINE
  5
5E
100
AcDbEntity
100
AcDbLine
  8
wing
 62
256
370
-1
 48
1.0
  6
BYLAYER
 10
-1.9047915699846578
 20
-179.9731753032332904
 30
0.0
 11
-1.9047915699846578
 21
-179.9731753032332904
 31
0.0
  0
LINE
  5
5F
100
AcDbEntity
100
AcDbLine
  8
wing
 62
256
370
-1
 48
1.0
  6
BYLAYER
 10
-1.9047915699846578
 20
-179.9731753032332904
 30
0.0
 11
-1.9047915699846578
 21
-179.9731753032332904
 31
0.0
  0
LINE
  5
60
100
AcDbEntity
100
AcDbLine
  8
wing
 62
256
370
-1
 48
1.0
  6
BYLAYER
 10
-0.4614994587631054
 20
-586.1938769415046409
 30
0.0
 11
0.2255349940269673
 21
-160.1369230214205288
 31
0.0
  0
LINE
  5
61
100
AcDbEntity
100
AcDbLine
  8
wing
 62
256
370
-1
 48
1.0
  6
BYLAYER
 10
0.2255349940269673
 20
-160.1369230214205288
 30
0.0
 11
-0.0773257654135671
 21
-191.2249960872514407
 31
0.0
  0
LINE
  5
62
100
AcDbEntity
100
AcDbLine
  8
wing
 62
256
370
-1
 48
1.0
  6
BYLAYER
 10
-1.904791570020185
 20
-179.9731753031758785
 30
0.0
 11
-1.904791570020185
 21
-179.9731753031758785
 31
0.0
  0
LINE
  5
63
100
AcDbEntity
100
AcDbLine
  8
wing
 62
256
370
-1
 48
1.0
  6
BYLAYER
 10
46.8889378612126464
 20
-306.8644813064728964
 30
0.0
 11
374.8543407470209559
 21
-355.3919680480483407
 31
0.0
  0
ARC
  5
64
100
AcDbEntity
  8
wing
 62
256
370
-1
 48
1.0
  6
BYLAYER
100
AcDbCircle
 10
265.0139922912363772
 20
-670.0541494923029404
 30
0.0
 40
333.2824486530092258
100
AcDbArc
 50
66.3476065971271538
 51
70.7572393956047705
  0
ARC
  5
65
100
AcDbEntity
  8
wing
 62
256
370
-1
 48
1.0
  6
BYLAYER
100
AcDbCircle
 10
385.1943222310327428
 20
-399.3842487186345807
 30
0.0
 40
37.1651718682983017
100
AcDbArc
 50
43.5962086397505786
 51
68.6538240580522512
  0
ARC
  5
66
100
AcDbEntity
  8
wing
 62
256
370
-1
 48
1.0
  6
BYLAYER
100
AcDbCircle
 10
383.3777136334178977
 20
-410.9037690087467354
 30
0.0
 40
46.9625969859408556
100
AcDbArc
 50
37.3652041245472333
 51
52.2793684606978957
  0
ARC
  5
67
100
AcDbEntity
  8
wing
 62
256
370
-1
 48
1.0
  6
BYLAYER
100
AcDbCircle
 10
403.9426161780513667
 20
-395.6017781743956903
 30
0.0
 40
21.3336639161873975
100
AcDbArc
 50
354.8358194893390305
 51
38.2217959289635445
  0
ARC
  5
68
100
AcDbEntity
  8
wing
 62
256
370
-1
 48
1.0
  6
BYLAYER
100
AcDbCircle
 10
396.4661360107612609
 20
-396.255889368653925
 30
0.0
 40
28.7514397808457041
100
AcDbArc
 50
328.1724796938351574
 51
357.4760414719581831
  0
ARC
  5
69
100
AcDbEntity
  8
wing
 62
256
370
-1
 48
1.0
  6
BYLAYER
100
AcDbCircle
 10
378.6575170048332666
 20
-390.6050045466980123
 30
0.0
 40
47.0867087175806205
100
AcDbArc
 50
305.0817703291604062
 51
333.767040509563401
  0
ARC
  5
6A
100
AcDbEntity
  8
wing
 62
256
370
-1
 48
1.0
  6
BYLAYER
100
AcDbCircle
 10
359.5160276790040825
 20
-375.6690310613607835
 30
0.0
 40
70.6663138069763761
100
AcDbArc
 50
284.6379904777669481
 51
310.8316150033979284
  0
LINE
  5
6B
100
AcDbEntity
100
AcDbLine
  8
wing
 62
256
370
-1
 48
1.0
  6
BYLAYER
 10
377.3741790437102281
 20
-444.0416450007247704
 30
0.0
 11
-1.4346727228759073
 21
-518.7405133081824715
 31
0.0
  0
LINE
  5
6C
100
AcDbEntity
100
AcDbLine
  8
wing
 62
256
370
-1
 48
1.0
  6
BYLAYER
 10
217.9823924319816228
 20
-474.747548447770555
 30
0.0
 11
218.5848401017963738
 21
-448.4938755145669234
 31
0.0
  0
LINE
  5
6D
100
AcDbEntity
100
AcDbLine
  8
wing
 62
256
370
-1
 48
1.0
  6
BYLAYER
 10
218.5848401017963738
 20
-448.4938755145669234
 30
0.0
 11
383.2137316669186475
 21
-426.8128334618772897
 31
0.0
  0
LINE
  5
6E
100
AcDbEntity
100
AcDbLine
  8
wing
 62
256
370
-1
 48
1.0
  6
BYLAYER
 10
383.2137316669186475
 20
-426.8128334618772897
 30
0.0
 11
383.5441781502509002
 21
-441.6752291342328363
 31
0.0
  0
LINE
  5
6F
100
AcDbEntity
100
AcDbLine
  8
wing
 62
256
370
-1
 48
1.0
  6
BYLAYER
 10
46.8889378612126464
 20
-306.8644813064728964
 30
0.0
 11
-0.6827394119132941
 21
-299.9000478120415778
 31
0.0
  0
ARC
  5
70
100
AcDbEntity
  8
fuselage-1
 62
256
370
-1
 48
1.0
  6
BYLAYER
100
AcDbCircle
 10
-1.5615653232559623
 20
-42.9664585248010553
 30
0.0
 40
65.8529403621321876
100
AcDbArc
 50
107.2263401030282068
 51
139.2603116208976815
  0
ARC
  5
71
100
AcDbEntity
  8
fuselage-1
 62
256
370
-1
 48
1.0
  6
BYLAYER
100
AcDbCircle
 10
24.0306635074997246
 20
-64.2692665542633677
 30
0.0
 40
95.5166835930532727
100
AcDbArc
 50
98.6985422634029419
 51
118.1713553824403817
  0
ARC
  5
72
100
AcDbEntity
  8
fuselage-1
 62
256
370
-1
 48
1.0
  6
BYLAYER
100
AcDbCircle
 10
79.2064627774457506
 20
-294.7780163936934059
 30
0.0
 40
332.3018788704357007
100
AcDbArc
 50
93.0767312623261773
 51
102.0937729715642632
  0
ARC
  5
73
100
AcDbEntity
  8
fuselage-1
 62
256
370
-1
 48
1.0
  6
BYLAYER
100
AcDbCircle
 10
292.3205421833729361
 20
-2408.7801505322772755
 30
0.0
 40
2456.7046684352831107
100
AcDbArc
 50
91.9874098575636197
 51
95.3942250247170875
  0
ARC
  5
74
100
AcDbEntity
  8
fuselage-1
 62
256
370
-1
 48
1.0
  6
BYLAYER
100
AcDbCircle
 10
281.7325613808277467
 20
-4260.1158253148514632
 30
0.0
 40
4307.2088207095466714
100
AcDbArc
 50
90.2708601943514566
 51
90.9925377268909159
  0
ARC
  5
75
100
AcDbEntity
  8
fuselage-1
 62
256
370
-1
 48
1.0
  6
BYLAYER
100
AcDbCircle
 10
434.5082527394454246
 20
-101.495678538959055
 30
0.0
 40
228.1247369102804328
100
AcDbArc
 50
134.7939353696614546
 51
139.3725892129079398
  0
ARC
  5
76
100
AcDbEntity
  8
fuselage-1
 62
256
370
-1
 48
1.0
  6
BYLAYER
100
AcDbCircle
 10
291.3401372399018783
 20
31.658664685585677
 30
0.0
 40
33.6738774609452918
100
AcDbArc
 50
100.8198726773078278
 51
121.4295656148381255
  0
ARC
  5
77
100
AcDbEntity
  8
fuselage-1
 62
256
370
-1
 48
1.0
  6
BYLAYER
100
AcDbCircle
 10
305.1521326250604034
 20
-570.2034459118137875
 30
0.0
 40
635.2564656670252816
100
AcDbArc
 50
87.0593060867351767
 51
91.8161918986966015
  0
ARC
  5
78
100
AcDbEntity
  8
fuselage-1
 62
256
370
-1
 48
1.0
  6
BYLAYER
100
AcDbCircle
 10
237.2345180647176619
 20
-1171.2002670438421319
 30
0.0
 40
1239.4984381903557278
100
AcDbArc
 50
82.5487554301147384
 51
85.3489276791000719
  0
ARC
  5
79
100
AcDbEntity
  8
fuselage-1
 62
256
370
-1
 48
1.0
  6
BYLAYER
100
AcDbCircle
 10
56.6733209214874591
 20
-1907.4034551618328805
 30
0.0
 40
1994.6516132579599798
100
AcDbArc
 50
77.1179396406623852
 51
80.1477070887778638
  0
ARC
  5
7A
100
AcDbEntity
  8
fuselage-1
 62
256
370
-1
 48
1.0
  6
BYLAYER
100
AcDbCircle
 10
503.4385838459747902
 20
54.9202521600101363
 30
0.0
 40
17.9945951438213356
100
AcDbArc
 50
263.4012577413232634
 51
318.5960417994946283
  0
ARC
  5
7B
100
AcDbEntity
  8
fuselage-1
 62
256
370
-1
 48
1.0
  6
BYLAYER
100
AcDbCircle
 10
-1506.9405629394800599
 20
1522.2257577723112263
 30
0.0
 40
2506.8160996682604491
100
AcDbArc
 50
323.8377552456377089
 51
324.7952146226340346
  0
ARC
  5
7C
100
AcDbEntity
  8
fuselage-1
 62
256
370
-1
 48
1.0
  6
BYLAYER
100
AcDbCircle
 10
1893.1647431682513343
 20
-803.9920223632652778
 30
0.0
 40
1613.5591269316385024
100
AcDbArc
 50
145.1157935329121642
 51
146.9055490085006284
  0
ARC
  5
7D
100
AcDbEntity
  8
fuselage-1
 62
256
370
-1
 48
1.0
  6
BYLAYER
100
AcDbCircle
 10
582.8032437855553098
 20
100.3148058805080609
 30
0.0
 40
22.7751560525117576
100
AcDbArc
 50
93.6061786147144659
 51
125.5954535483398047
  0
ARC
  5
7E
100
AcDbEntity
  8
fuselage-1
 62
256
370
-1
 48
1.0
  6
BYLAYER
100
AcDbCircle
 10
583.4575253290983028
 20
104.9246810755685146
 30
0.0
 40
18.2399512701285431
100
AcDbArc
 50
59.3982039884019599
 51
96.5694813209275367
  0
ARC
  5
7F
100
AcDbEntity
  8
fuselage-1
 62
256
370
-1
 48
1.0
  6
BYLAYER
100
AcDbCircle
 10
578.8744695613761451
 20
88.8815245169729451
 30
0.0
 40
34.640096430194582
100
AcDbArc
 50
31.6241208563001592
 51
66.3994414949180509
  0
ARC
  5
80
100
AcDbEntity
  8
fuselage-1
 62
256
370
-1
 48
1.0
  6
BYLAYER
100
AcDbCircle
 10
511.2040620843258694
 20
24.7948660188419581
 30
0.0
 40
127.3044524402269388
100
AcDbArc
 50
25.2230821690556475
 51
40.2473703751634631
  0
ARC
  5
81
100
AcDbEntity
  8
fuselage-1
 62
256
370
-1
 48
1.0
  6
BYLAYER
100
AcDbCircle
 10
534.6482845539270556
 20
28.5077723999781938
 30
0.0
 40
104.7234672884794975
100
AcDbArc
 50
359.7467361518231996
 51
28.8538187465501217
  0
ARC
  5
82
100
AcDbEntity
  8
fuselage-1
 62
256
370
-1
 48
1.0
  6
BYLAYER
100
AcDbCircle
 10
596.236238715431341
 20
27.0086498656701224
 30
0.0
 40
43.1469347062159869
100
AcDbArc
 50
323.0827701327978616
 51
1.3761469109857498
  0
ARC
  5
83
100
AcDbEntity
  8
fuselage-1
 62
256
370
-1
 48
1.0
  6
BYLAYER
100
AcDbCircle
 10
613.1477668405757413
 20
17.4195640102147991
 30
0.0
 40
23.9960168204538853
100
AcDbArc
 50
287.9269414873022583
 51
317.1228390882784538
  0
ARC
  5
84
100
AcDbEntity
  8
fuselage-1
 62
256
370
-1
 48
1.0
  6
BYLAYER
100
AcDbCircle
 10
252.7577373137284837
 20
1239.7144130492615659
 30
0.0
 40
1298.3056850860880331
100
AcDbArc
 50
276.1870683414319387
 51
286.4556982153384865
  0
LINE
  5
85
100
AcDbEntity
100
AcDbLine
  8
fuselage-1
 62
256
370
-1
 48
1.0
  6
BYLAYER
 10
-51.4571825442300792
 20
0.0107114201425702
 30
0.0
 11
642.2091784630700886
 21
-0.1336834235723927
 31
0.0
  0
ARC
  5
86
100
AcDbEntity
  8
fuselage-1
 62
256
370
-1
 48
1.0
  6
BYLAYER
100
AcDbCircle
 10
-40.8475465298225515
 20
1.5588943388249845
 30
0.0
 40
10.7219982609548676
100
AcDbArc
 50
188.3021384399494877
 51
260.4749258771906284
  0
ARC
  5
87
100
AcDbEntity
  8
fuselage-1
 62
256
370
-1
 48
1.0
  6
BYLAYER
100
AcDbCircle
 10
9.1059266577866822
 20
59.2775866927048583
 30
0.0
 40
85.6719044039560913
100
AcDbArc
 50
232.8582609502280718
 51
249.0325308516153484
  0
ARC
  5
88
100
AcDbEntity
  8
fuselage-1
 62
256
370
-1
 48
1.0
  6
BYLAYER
100
AcDbCircle
 10
53.5908257271728701
 20
135.2097087738401342
 30
0.0
 40
173.0918165573040142
100
AcDbArc
 50
244.2710824886796388
 51
260.727194973413873
  0
ARC
  5
89
100
AcDbEntity
  8
fuselage-1
 62
256
370
-1
 48
1.0
  6
BYLAYER
100
AcDbCircle
 10
163.6793618439406544
 20
469.4003020559688366
 30
0.0
 40
523.5304363230700346
100
AcDbArc
 50
254.7188132668548519
 51
264.6604705816542946
  0
ARC
  5
8A
100
AcDbEntity
  8
fuselage-1
 62
256
370
-1
 48
1.0
  6
BYLAYER
100
AcDbCircle
 10
228.5081027293987574
 20
879.0447504328172954
 30
0.0
 40
937.80255535680908
100
AcDbArc
 50
263.0456829304708322
 51
272.9364998424696864
  0
ARC
  5
8B
100
AcDbEntity
  8
fuselage-1
 62
256
370
-1
 48
1.0
  6
BYLAYER
100
AcDbCircle
 10
261.195573156905084
 20
1258.0303388292732052
 30
0.0
 40
1315.6463502962412804
100
AcDbArc
 50
270.6687340309240994
 51
275.7357735535094321
  0
LINE
  5
8C
100
AcDbEntity
100
AcDbLine
  8
fuselage-1
 62
256
370
-1
 48
1.0
  6
BYLAYER
 10
0.0
 20
28.0539800661816798
 30
0.0
 11
0.0
 21
-29.7378069259137874
 31
0.0
  0
LINE
  5
8D
100
AcDbEntity
100
AcDbLine
  8
fuselage-1
 62
256
370
-1
 48
1.0
  6
BYLAYER
 10
488.6360186215534895
 20
5.2241242272624504
 30
0.0
 11
606.9406250400401177
 21
5.2241242272624504
 31
0.0
  0
LINE
  5
8E
100
AcDbEntity
100
AcDbLine
  8
fuselage-1
 62
256
370
-1
 48
1.0
  6
BYLAYER
 10
138.2142118843800915
 20
-48.9627267777577799
 30
0.0
 11
338.4295190710903398
 21
-48.9627267777577799
 31
0.0
  0
LINE
  5
8F
100
AcDbEntity
100
AcDbLine
  8
wing
 62
256
370
-1
 48
1.0
  6
BYLAYER
 10
500.0016729273496594
 20
-513.5653458176743698
 30
0.0
 11
500.0
 21
-300.0
 31
0.0
  0
LINE
  5
90
100
AcDbEntity
100
AcDbLine
  8
wing
 62
256
370
-1
 48
1.0
  6
BYLAYER
 10
525.5740226985318486
 20
-356.8083725059682365
 30
0.0
 11
641.942418142655356
 21
-414.9382043073476325
 31
0.0
  0
LINE
  5
91
100
AcDbEntity
100
AcDbLine
  8
wing
 62
256
370
-1
 48
1.0
  6
BYLAYER
 10
500.1232679909546732
 20
-430.2139835996240436
 30
0.0
 11
588.8739451303478063
 21
-431.8289096753846934
 31
0.0
  0
LINE
  5
92
100
AcDbEntity
100
AcDbLine
  8
wing
 62
256
370
-1
 48
1.0
  6
BYLAYER
 10
588.8739451303478063
 20
-431.8289096753846934
 30
0.0
 11
609.5685242092857834
 21
-433.249495664062124
 31
0.0
  0
LINE
  5
93
100
AcDbEntity
100
AcDbLine
  8
wing
 62
256
370
-1
 48
1.0
  6
BYLAYER
 10
609.5685242092857834
 20
-433.249495664062124
 30
0.0
 11
650.9703690943439369
 21
-440.0002694920037811
 31
0.0
  0
LINE
  5
94
100
AcDbEntity
100
AcDbLine
  8
wing
 62
256
370
-1
 48
1.0
  6
BYLAYER
 10
519.847113568186046
 20
-473.6750317452338095
 30
0.0
 11
513.2434886311013997
 21
-453.802259420894643
 31
0.0
  0
LINE
  5
95
100
AcDbEntity
100
AcDbLine
  8
wing
 62
256
370
-1
 48
1.0
  6
BYLAYER
 10
513.2434886311013997
 20
-453.802259420894643
 30
0.0
 11
513.668221120039675
 21
-430.4604504290405202
 31
0.0
  0
ARC
  5
96
100
AcDbEntity
  8
wing
 62
256
370
-1
 48
1.0
  6
BYLAYER
100
AcDbCircle
 10
634.1672296394714294
 20
-432.4278769204536275
 30
0.0
 40
19.1400680347187482
100
AcDbArc
 50
23.802132686535856
 51
66.032038190190633
  0
ARC
  5
97
100
AcDbEntity
  8
wing
 62
256
370
-1
 48
1.0
  6
BYLAYER
100
AcDbCircle
 10
634.3659979578272896
 20
-431.951975466824706
 30
0.0
 40
18.7695033734929595
100
AcDbArc
 50
325.2662701804659946
 51
22.7177702166544542
  0
ARC
  5
98
100
AcDbEntity
  8
wing
 62
256
370
-1
 48
1.0
  6
BYLAYER
100
AcDbCircle
 10
626.4011006803204964
 20
-433.4384222893675087
 30
0.0
 40
25.1369625077907486
100
AcDbArc
 50
307.5267581716278755
 51
338.5122436746406152
  0
ARC
  5
99
100
AcDbEntity
  8
wing
 62
256
370
-1
 48
1.0
  6
BYLAYER
100
AcDbCircle
 10
612.8168446178938211
 20
-424.7642223612724592
 30
0.0
 40
40.6630514913304353
100
AcDbArc
 50
289.8060308900978157
 51
315.2853895879478614
  0
ARC
  5
9A
100
AcDbEntity
  8
wing
 62
256
370
-1
 48
1.0
  6
BYLAYER
100
AcDbCircle
 10
592.6869130869373521
 20
-405.7169616246674195
 30
0.0
 40
66.5853473286737056
100
AcDbArc
 50
281.1433939668385165
 51
300.6133735328662624
  0
ARC
  5
9B
100
AcDbEntity
  8
wing
 62
256
370
-1
 48
1.0
  6
BYLAYER
100
AcDbCircle
 10
538.9480444378015136
 20
-189.376478739763229
 30
0.0
 40
289.438785936717295
100
AcDbArc
 50
272.4448354291408236
 51
283.3045109779874338
  0
ARC
  5
9C
100
AcDbEntity
  8
wing
 62
256
370
-1
 48
1.0
  6
BYLAYER
100
AcDbCircle
 10
520.1054225152258823
 20
203.744910231049289
 30
0.0
 40
683.0092112732965006
100
AcDbArc
 50
270.422909462603684
 51
272.6172997528158248
  0
ARC
  5
9D
100
AcDbEntity
  8
wing
 62
256
370
-1
 48
1.0
  6
BYLAYER
100
AcDbCircle
 10
525.9617120123413088
 20
-473.1641496993113378
 30
0.0
 40
6.1359037311641194
100
AcDbArc
 50
184.7760382970803903
 51
262.3677732059948084
  0
ARC
  5
9E
100
AcDbEntity
  8
wing
 62
256
370
-1
 48
1.0
  6
BYLAYER
100
AcDbCircle
 10
499.7187775941671362
 20
-369.0281071853582944
 30
0.0
 40
2.1213203435596424
100
AcDbArc
 50
3.9999999999999996
 51
184.0
  0
ARC
  5
9F
100
AcDbEntity
  8
wing
 62
256
370
-1
 48
1.0
  6
BYLAYER
100
AcDbCircle
 10
504.3481291588495878
 20
241.6653463620597222
 30
0.0
 40
698.6827810937755885
100
AcDbArc
 50
268.8452200259567917
 51
270.3573692640514992
  0
LINE
  5
A0
100
AcDbEntity
100
AcDbLine
  8
fuselage-1
 62
256
370
-1
 48
1.0
  6
BYLAYER
 10
-51.320222803071097
 20
-199.92350057876547
 30
0.0
 11
640.0342708248568897
 21
-200.9543008697264099
 31
0.0
  0
ARC
  5
A1
100
AcDbEntity
  8
fuselage-1
 62
256
370
-1
 48
1.0
  6
BYLAYER
100
AcDbCircle
 10
-15.845635765302843
 20
-228.953828823958446
 30
0.0
 40
46.5544002987777432
100
AcDbArc
 50
118.3174657487793837
 51
140.9373306968201689
  0
ARC
  5
A2
100
AcDbEntity
  8
fuselage-1
 62
256
370
-1
 48
1.0
  6
BYLAYER
100
AcDbCircle
 10
40.5925433875521762
 20
-311.8889394238238992
 30
0.0
 40
146.7018231999416003
100
AcDbArc
 50
108.8815048296751371
 51
122.3605967743212517
  0
ARC
  5
A3
100
AcDbEntity
  8
fuselage-1
 62
256
370
-1
 48
1.0
  6
BYLAYER
100
AcDbCircle
 10
39.7687894661258881
 20
-267.5861102542555727
 30
0.0
 40
105.3920061451259897
100
AcDbArc
 50
102.4499906214184364
 51
116.2724448594663187
  0
ARC
  5
A4
100
AcDbEntity
  8
fuselage-1
 62
256
370
-1
 48
1.0
  6
BYLAYER
100
AcDbCircle
 10
120.8237507457030517
 20
-763.204789673919322
 30
0.0
 40
607.4623093246032113
100
AcDbArc
 50
95.1162663331546554
 51
99.8364024168425033
  0
ARC
  5
A5
100
AcDbEntity
  8
fuselage-1
 62
256
370
-1
 48
1.0
  6
BYLAYER
100
AcDbCircle
 10
68.0989245858794447
 20
-2266.1193014777322787
 30
0.0
 40
2107.9570591213491753
100
AcDbArc
 50
87.8625458989743464
 51
90.0393273162886629
  0
ARC
  5
A6
100
AcDbEntity
  8
fuselage-1
 62
256
370
-1
 48
1.0
  6
BYLAYER
100
AcDbCircle
 10
81.9319255103696662
 20
-27968.9275102925603278
 30
0.0
 40
27809.3740745566428814
100
AcDbArc
 50
89.4804136253821838
 51
89.8665181310528567
  0
ARC
  5
A7
100
AcDbEntity
  8
fuselage-1
 62
256
370
-1
 48
1.0
  6
BYLAYER
100
AcDbCircle
 10
-59.8164326746073982
 20
-5126.6864747957097279
 30
0.0
 40
4981.5897373680954843
100
AcDbArc
 50
83.6655298976723003
 51
85.4644304657285687
  0
ARC
  5
A8
100
AcDbEntity
  8
fuselage-1
 62
256
370
-1
 48
1.0
  6
BYLAYER
100
AcDbCircle
 10
614.8795027432270217
 20
344.1442307923699673
 30
0.0
 40
534.4927949764046389
100
AcDbArc
 50
256.4679235824826264
 51
265.0640318047251753
  0
ARC
  5
A9
100
AcDbEntity
  8
fuselage-1
 62
256
370
-1
 48
1.0
  6
BYLAYER
100
AcDbCircle
 10
835.4289508829211854
 20
1110.7059383929640717
 30
0.0
 40
1326.1341049296831898
100
AcDbArc
 50
258.4051961255052561
 51
261.5271021119559691
  0
ARC
  5
AA
100
AcDbEntity
  8
fuselage-1
 62
256
370
-1
 48
1.0
  6
BYLAYER
100
AcDbCircle
 10
-4648.8071696385195537
 20
-188.5150589450448706
 30
0.0
 40
4648.8213558614806971
100
AcDbArc
 50
359.8584500628492151
 51
0.2124697657540641
  0
ARC
  5
AB
100
AcDbEntity
  8
fuselage-1
 62
256
370
-1
 48
1.0
  6
BYLAYER
100
AcDbCircle
 10
392.2627661288522063
 20
-201.9632244332149185
 30
0.0
 40
271.0335124568596257
100
AcDbArc
 50
166.6459390495154196
 51
170.9518646277117853
  0
ARC
  5
AC
100
AcDbEntity
  8
fuselage-1
 62
256
370
-1
 48
1.0
  6
BYLAYER
100
AcDbCircle
 10
437.9512610613106744
 20
-24.7555538938474626
 30
0.0
 40
156.4308078188614672
100
AcDbArc
 50
230.6515059488315558
 51
241.6239404854507598
  0
ARC
  5
AD
100
AcDbEntity
  8
fuselage-1
 62
256
370
-1
 48
1.0
  6
BYLAYER
100
AcDbCircle
 10
206.9797747424086651
 20
-257.7010200799696804
 30
0.0
 40
172.936734548763269
100
AcDbArc
 50
40.3535438424110353
 51
46.0252698825896474
  0
ARC
  5
AE
100
AcDbEntity
  8
fuselage-1
 62
256
370
-1
 48
1.0
  6
BYLAYER
100
AcDbCircle
 10
366.2820481880302168
 20
-106.7063037623166082
 30
0.0
 40
47.3610171980973647
100
AcDbArc
 50
194.7365183413222098
 51
214.0839834135435069
  0
ARC
  5
AF
100
AcDbEntity
  8
fuselage-1
 62
256
370
-1
 48
1.0
  6
BYLAYER
100
AcDbCircle
 10
-439.7945425070879537
 20
-237.2103947025067328
 30
0.0
 40
769.0674182123063929
100
AcDbArc
 50
5.7048943685964195
 51
10.4921481610966136
  0
ARC
  5
B0
100
AcDbEntity
  8
fuselage-1
 62
256
370
-1
 48
1.0
  6
BYLAYER
100
AcDbCircle
 10
364.311616245686821
 20
-263.6793985406360434
 30
0.0
 40
80.4827844116629478
100
AcDbArc
 50
57.1140533601021687
 51
72.2474532589269387
  0
ARC
  5
B1
100
AcDbEntity
  8
fuselage-1
 62
256
370
-1
 48
1.0
  6
BYLAYER
100
AcDbCircle
 10
404.3770429114125022
 20
-199.6089418076963966
 30
0.0
 40
5.0560877868795329
100
AcDbArc
 50
348.5767210066453003
 51
44.0465643455945894
  0
ARC
  5
B2
100
AcDbEntity
  8
fuselage-1
 62
256
370
-1
 48
1.0
  6
BYLAYER
100
AcDbCircle
 10
270.1736199577663342
 20
-428.3941345710986752
 30
0.0
 40
268.9637907204337921
100
AcDbArc
 50
63.8169400635306658
 51
74.3309498335851941
  0
ARC
  5
B3
100
AcDbEntity
  8
fuselage-1
 62
256
370
-1
 48
1.0
  6
BYLAYER
100
AcDbCircle
 10
230.502506799221095
 20
-2787.6494905631993788
 30
0.0
 40
2620.631670623795344
100
AcDbArc
 50
87.5437105364712806
 51
88.854973408376992
  0
ARC
  5
B4
100
AcDbEntity
  8
fuselage-1
 62
256
370
-1
 48
1.0
  6
BYLAYER
100
AcDbCircle
 10
296.8834976791615645
 20
-210.0253392167016955
 30
0.0
 40
44.7354392517250332
100
AcDbArc
 50
108.2540251012539727
 51
144.1552454215990338
  0
ARC
  5
B5
100
AcDbEntity
  8
fuselage-1
 62
256
370
-1
 48
1.0
  6
BYLAYER
100
AcDbCircle
 10
277.7495754394063283
 20
-193.461262359372256
 30
0.0
 40
19.6516378925802186
100
AcDbArc
 50
150.6484055591838285
 51
173.7044706715407756
  0
ARC
  5
B6
100
AcDbEntity
  8
fuselage-1
 62
256
370
-1
 48
1.0
  6
BYLAYER
100
AcDbCircle
 10
166.0559131289734864
 20
-198.2662965752251409
 30
0.0
 40
92.4229683177632211
100
AcDbArc
 50
358.6862070703987797
 51
4.3187827678012605
  0
ARC
  5
B7
100
AcDbEntity
  8
fuselage-1
 62
256
370
-1
 48
1.0
  6
BYLAYER
100
AcDbCircle
 10
2198.3641134223471454
 20
-193.8951789498230767
 30
0.0
 40
1913.9220314829458403
100
AcDbArc
 50
179.2319894958041004
 51
180.195453265365245
  0
ARC
  5
B8
100
AcDbEntity
  8
fuselage-1
 62
256
370
-1
 48
1.0
  6
BYLAYER
100
AcDbCircle
 10
231.8160346159937717
 20
-205.7274762658409486
 30
0.0
 40
118.3842520017271909
100
AcDbArc
 50
2.5585554738020959
 51
17.4029263918315031
  0
ARC
  5
B9
100
AcDbEntity
  8
fuselage-1
 62
256
370
-1
 48
1.0
  6
BYLAYER
100
AcDbCircle
 10
500.009357749476635
 20
-205.9737679792889935
 30
0.0
 40
9.1430972337761602
100
AcDbArc
 50
95.1969507292735813
 51
143.0452796581039081
  0
ARC
  5
BA
100
AcDbEntity
  8
fuselage-1
 62
256
370
-1
 48
1.0
  6
BYLAYER
100
AcDbCircle
 10
544.7658437721834161
 20
-436.3135793973136742
 30
0.0
 40
243.7458194133671725
100
AcDbArc
 50
93.0698003377015084
 51
100.7787631118274874
  0
ARC
  5
BB
100
AcDbEntity
  8
fuselage-1
 62
256
370
-1
 48
1.0
  6
BYLAYER
100
AcDbCircle
 10
-517.8715661872761302
 20
-181.7893144249098611
 30
0.0
 40
1074.0755339299573734
100
AcDbArc
 50
359.3872108844919921
 51
0.3373678735523455
  0
ARC
  5
BC
100
AcDbEntity
  8
fuselage-1
 62
256
370
-1
 48
1.0
  6
BYLAYER
100
AcDbCircle
 10
475.9770000712716751
 20
-164.5085509131089054
 30
0.0
 40
10.5278286904614635
100
AcDbArc
 50
289.3515064304397129
 51
341.0657215966560329
  0
ARC
  5
BD
100
AcDbEntity
  8
fuselage-1
 62
256
370
-1
 48
1.0
  6
BYLAYER
100
AcDbCircle
 10
592.6536707451770098
 20
-210.0382173614569581
 30
0.0
 40
114.7274497214150131
100
AcDbArc
 50
150.1122639069991465
 51
158.4646717585191595
  0
ARC
  5
BE
100
AcDbEntity
  8
fuselage-1
 62
256
370
-1
 48
1.0
  6
BYLAYER
100
AcDbCircle
 10
227.8289422907797359
 20
-23.1950763661938026
 30
0.0
 40
77.83765762915273
100
AcDbArc
 50
43.1047350046554953
 51
64.4740540097797066
  0
ARC
  5
BF
100
AcDbEntity
  8
fuselage-1
 62
256
370
-1
 48
1.0
  6
BYLAYER
100
AcDbCircle
 10
315.6906406996366741
 20
-1796.03959296043422
 30
0.0
 40
1826.2973059951411869
100
AcDbArc
 50
89.0263980465238944
 51
90.9736019534739597
  0
ARC
  5
C0
100
AcDbEntity
  8
fuselage-1
 62
256
370
-1
 48
1.0
  6
BYLAYER
100
AcDbCircle
 10
718.737362216437873
 20
-882.6155387348306931
 30
0.0
 40
985.5207940875023951
100
AcDbArc
 50
108.5500429690642505
 51
112.1776977311541827
  0
ARC
  5
C1
100
AcDbEntity
  8
fuselage-1
 62
256
370
-1
 48
1.0
  6
BYLAYER
100
AcDbCircle
 10
402.2321788293966165
 20
63.1143299316347566
 30
0.0
 40
11.793044502200047
100
AcDbArc
 50
284.6301946300100667
 51
318.3611036910267558
  0
ARC
  5
C2
100
AcDbEntity
  8
fuselage-1
 62
256
370
-1
 48
1.0
  6
BYLAYER
100
AcDbCircle
 10
-427.6292712478516478
 20
211.0448660185651306
 30
0.0
 40
792.9344235169063495
100
AcDbArc
 50
346.804992320664951
 51
349.2427427909312314
  0
ARC
  5
C3
100
AcDbEntity
  8
fuselage-1
 62
256
370
-1
 48
1.0
  6
BYLAYER
100
AcDbCircle
 10
1862.1264751546398202
 20
66.2567034786261502
 30
0.0
 40
1575.1612760517446077
100
AcDbArc
 50
180.0644626593920918
 51
181.3175443751759985
  0
ARC
  5
C4
100
AcDbEntity
  8
fuselage-1
 62
256
370
-1
 48
1.0
  6
BYLAYER
100
AcDbCircle
 10
-7048.5185916694063053
 20
99.0249752100937712
 30
0.0
 40
7633.9270112945196161
100
AcDbArc
 50
359.2032460844412185
 51
0.1763850634289639
  0
LINE
  5
C5
100
AcDbEntity
100
AcDbLine
  8
fuselage-1
 62
256
370
-1
 48
1.0
  6
BYLAYER
 10
-51.3190415391071255
 20
-199.3123836538722458
 30
0.0
 11
640.0342708248568897
 21
-200.9543008697264099
 31
0.0
  0
ARC
  5
C6
100
AcDbEntity
  8
fuselage-1
 62
256
370
-1
 48
1.0
  6
BYLAYER
100
AcDbCircle
 10
-15.7324911403547691
 20
-170.4194136742923718
 30
0.0
 40
46.5544002987777432
100
AcDbArc
 50
218.8411687929686309
 51
241.4610337410094019
  0
ARC
  5
C7
100
AcDbEntity
  8
fuselage-1
 62
256
370
-1
 48
1.0
  6
BYLAYER
100
AcDbCircle
 10
41.0258854107165831
 20
-87.7031073762687896
 30
0.0
 40
146.7018231999416003
100
AcDbArc
 50
237.4179027154675907
 51
250.8969946601137053
  0
ARC
  5
C8
100
AcDbEntity
  8
fuselage-1
 62
256
370
-1
 48
1.0
  6
BYLAYER
100
AcDbCircle
 10
40.0308671795190349
 20
-132.0024209338237995
 30
0.0
 40
105.3920061451259897
100
AcDbArc
 50
243.5060546303224669
 51
257.3285088683702497
  0
ARC
  5
C9
100
AcDbEntity
  8
fuselage-1
 62
256
370
-1
 48
1.0
  6
BYLAYER
100
AcDbCircle
 10
123.0012367864972305
 20
363.2992042452247006
 30
0.0
 40
607.4623093246032113
100
AcDbArc
 50
259.9420970729463534
 51
264.6622331566341586
  0
ARC
  5
CA
100
AcDbEntity
  8
fuselage-1
 62
256
370
-1
 48
1.0
  6
BYLAYER
100
AcDbCircle
 10
76.0869271943052183
 20
1866.4063144138794996
 30
0.0
 40
2107.9570591213491753
100
AcDbArc
 50
269.7391721735002079
 51
271.9159535908144107
  0
ARC
  5
CB
100
AcDbEntity
  8
fuselage-1
 62
256
370
-1
 48
1.0
  6
BYLAYER
100
AcDbCircle
 10
189.2844027250664567
 20
27568.9689785251612193
 30
0.0
 40
27809.3740745566428814
100
AcDbArc
 50
269.9119813587358863
 51
270.2980858644065165
  0
ARC
  5
CC
100
AcDbEntity
  8
fuselage-1
 62
256
370
-1
 48
1.0
  6
BYLAYER
100
AcDbCircle
 10
-40.7687973583485288
 20
4727.4466201989544061
 30
0.0
 40
4981.5897373680954843
100
AcDbArc
 50
274.3140690240602453
 51
276.1129695921164284
  0
ARC
  5
CD
100
AcDbEntity
  8
fuselage-1
 62
256
370
-1
 48
1.0
  6
BYLAYER
100
AcDbCircle
 10
612.7723923568383952
 20
-745.9515133027877027
 30
0.0
 40
534.4927949764046389
100
AcDbArc
 50
94.7144676850637097
 51
103.3105759073061449
  0
ARC
  5
CE
100
AcDbEntity
  8
fuselage-1
 62
256
370
-1
 48
1.0
  6
BYLAYER
100
AcDbCircle
 10
830.3567387705236342
 20
-1513.360115567574212
 30
0.0
 40
1326.1341049296831898
100
AcDbArc
 50
98.2513973778328165
 51
101.3733033642835863
  0
ARC
  5
CF
100
AcDbEntity
  8
fuselage-1
 62
256
370
-1
 48
1.0
  6
BYLAYER
100
AcDbCircle
 10
-4648.8157369765467593
 20
-192.9472988425342805
 30
0.0
 40
4648.8213558614806971
100
AcDbArc
 50
359.5660297240347631
 51
359.9200494269396131
  0
ARC
  5
D0
100
AcDbEntity
  8
fuselage-1
 62
256
370
-1
 48
1.0
  6
BYLAYER
100
AcDbCircle
 10
392.2685180356089631
 20
-198.9875241013742482
 30
0.0
 40
271.0335124568596257
100
AcDbArc
 50
188.826634862077043
 51
193.1325604402734371
  0
ARC
  5
D1
100
AcDbEntity
  8
fuselage-1
 62
256
370
-1
 48
1.0
  6
BYLAYER
100
AcDbCircle
 10
437.2716037888012011
 20
-376.3704977484325127
 30
0.0
 40
156.4308078188614672
100
AcDbArc
 50
118.1545590043380685
 51
129.126993540957244
  0
ARC
  5
D2
100
AcDbEntity
  8
fuselage-1
 62
256
370
-1
 48
1.0
  6
BYLAYER
100
AcDbCircle
 10
207.2023881440754565
 20
-142.5338587851312298
 30
0.0
 40
172.936734548763269
100
AcDbArc
 50
313.7532296071992164
 51
319.4249556473777716
  0
ARC
  5
D3
100
AcDbEntity
  8
fuselage-1
 62
256
370
-1
 48
1.0
  6
BYLAYER
100
AcDbCircle
 10
365.9197401696133625
 20
-294.1432940020514479
 30
0.0
 40
47.3610171980973647
100
AcDbArc
 50
145.6945160762453781
 51
165.0419811484666184
  0
ARC
  5
D4
100
AcDbEntity
  8
fuselage-1
 62
256
370
-1
 48
1.0
  6
BYLAYER
100
AcDbCircle
 10
-439.6463107800044554
 20
-160.5239639025930387
 30
0.0
 40
769.0674182123063929
100
AcDbArc
 50
349.2863513286922057
 51
354.0736051211924291
  0
ARC
  5
D5
100
AcDbEntity
  8
fuselage-1
 62
256
370
-1
 48
1.0
  6
BYLAYER
100
AcDbCircle
 10
364.5561657988487241
 20
-137.1637547262020007
 30
0.0
 40
80.4827844116629478
100
AcDbArc
 50
287.5310462308619321
 51
302.6644461296866666
  0
ARC
  5
D6
100
AcDbEntity
  8
fuselage-1
 62
256
370
-1
 48
1.0
  6
BYLAYER
100
AcDbCircle
 10
404.3736028630201531
 20
-201.3886217600460782
 30
0.0
 40
5.0560877868795329
100
AcDbArc
 50
315.7319351441942104
 51
11.201778483143519
  0
ARC
  5
D7
100
AcDbEntity
  8
fuselage-1
 62
256
370
-1
 48
1.0
  6
BYLAYER
100
AcDbCircle
 10
271.0556442554436671
 20
27.9136788672506384
 30
0.0
 40
268.9637907204337921
100
AcDbArc
 50
285.4475496562036483
 51
295.9615594262582476
  0
ARC
  5
D8
100
AcDbEntity
  8
fuselage-1
 62
256
370
-1
 48
1.0
  6
BYLAYER
100
AcDbCircle
 10
240.5054812443328558
 20
2387.3047697075653559
 30
0.0
 40
2620.631670623795344
100
AcDbArc
 50
270.9235260814118647
 51
272.2347889533174339
  0
ARC
  5
D9
100
AcDbEntity
  8
fuselage-1
 62
256
370
-1
 48
1.0
  6
BYLAYER
100
AcDbCircle
 10
296.9211296785100558
 20
-190.5567425088518121
 30
0.0
 40
44.7354392517250332
100
AcDbArc
 50
215.623254068189766
 51
251.5244743885347702
  0
ARC
  5
DA
100
AcDbEntity
  8
fuselage-1
 62
256
370
-1
 48
1.0
  6
BYLAYER
100
AcDbCircle
 10
277.7233152957040261
 20
-207.0467256906444788
 30
0.0
 40
19.6516378925802186
100
AcDbArc
 50
186.0740288182480242
 51
209.1300939306049713
  0
ARC
  5
DB
100
AcDbEntity
  8
fuselage-1
 62
256
370
-1
 48
1.0
  6
BYLAYER
100
AcDbCircle
 10
166.0490634299534065
 20
-201.8099304533434406
 30
0.0
 40
92.4229683177632211
100
AcDbArc
 50
355.4597167219875473
 51
1.0922924193900652
  0
ARC
  5
DC
100
AcDbEntity
  8
fuselage-1
 62
256
370
-1
 48
1.0
  6
BYLAYER
100
AcDbCircle
 10
2198.3251787105323274
 20
-214.0377229388164437
 30
0.0
 40
1913.9220314829458403
100
AcDbArc
 50
179.5830462244235832
 51
180.5465099939846993
  0
ARC
  5
DD
100
AcDbEntity
  8
fuselage-1
 62
256
370
-1
 48
1.0
  6
BYLAYER
100
AcDbCircle
 10
231.8375377169029719
 20
-194.6030288057094708
 30
0.0
 40
118.3842520017271909
100
AcDbArc
 50
342.3755730979573286
 51
357.2199440159867549
  0
ARC
  5
DE
100
AcDbEntity
  8
fuselage-1
 62
256
370
-1
 48
1.0
  6
BYLAYER
100
AcDbCircle
 10
500.0298088800907408
 20
-195.3935484576610122
 30
0.0
 40
9.1430972337761602
100
AcDbArc
 50
216.733219831684977
 51
264.5815487605152043
  0
ARC
  5
DF
100
AcDbEntity
  8
fuselage-1
 62
256
370
-1
 48
1.0
  6
BYLAYER
100
AcDbCircle
 10
545.676431952928624
 20
34.7715174564307858
 30
0.0
 40
243.7458194133671725
100
AcDbArc
 50
258.9997363779613124
 51
266.7086991520871493
  0
ARC
  5
E0
100
AcDbEntity
  8
fuselage-1
 62
256
370
-1
 48
1.0
  6
BYLAYER
100
AcDbCircle
 10
-517.9370035712553317
 20
-215.6427917943253192
 30
0.0
 40
1074.0755339299573734
100
AcDbArc
 50
359.4411316162364756
 51
0.3912886052968879
  0
ARC
  5
E1
100
AcDbEntity
  8
fuselage-1
 62
256
370
-1
 48
1.0
  6
BYLAYER
100
AcDbCircle
 10
475.8373302562524714
 20
-236.7655488921780034
 30
0.0
 40
10.5278286904614635
100
AcDbArc
 50
18.7127778931327917
 51
70.4269930593490727
  0
ARC
  5
E2
100
AcDbEntity
  8
fuselage-1
 62
256
370
-1
 48
1.0
  6
BYLAYER
100
AcDbCircle
 10
592.68914234819988
 20
-191.6872834278451023
 30
0.0
 40
114.7274497214150131
100
AcDbArc
 50
201.3138277312696118
 51
209.6662355827897102
  0
LINE
  5
E3
100
AcDbEntity
100
AcDbLine
  8
fuselage-1
 62
256
370
-1
 48
1.0
  6
BYLAYER
 10
210.3707287509735977
 20
-58.9551339811649768
 30
0.0
 11
217.2056301123169817
 21
-76.8138657076049185
 31
0.0
  0
ARC
  5
E4
100
AcDbEntity
  8
fuselage-1
 62
256
370
-1
 48
1.0
  6
BYLAYER
100
AcDbCircle
 10
248.5399355579461087
 20
90.2237005032957313
 30
0.0
 40
169.9511318686078027
100
AcDbArc
 50
259.3754533103449944
 51
272.344157553054572
  0
ARC
  5
E5
100
AcDbEntity
  8
fuselage-1
 62
256
370
-1
 48
1.0
  6
BYLAYER
100
AcDbCircle
 10
252.7942331960582862
 20
174.681758443624517
 30
0.0
 40
254.2812727203555312
100
AcDbArc
 50
270.6077155843046853
 51
278.2702661442678504
  0
ARC
  5
E6
100
AcDbEntity
  8
fuselage-1
 62
256
370
-1
 48
1.0
  6
BYLAYER
100
AcDbCircle
 10
172.2588791804271011
 20
608.5242301782724326
 30
0.0
 40
695.411492569875918
100
AcDbArc
 50
279.6951853572865048
 51
288.4797070167590505
  0
ENDSEC
  0
SECTION
  2
OBJECTS
  0
DICTIONARY
  5
C
100
AcDbDictionary
280
0
281
1
  3
ACAD_GROUP
350
D
  3
ACAD_LAYOUT
350
1A
  3
ACAD_MLINESTYLE
350
17
  3
ACAD_PLOTSETTINGS
350
19
  3
ACAD_PLOTSTYLENAME
350
E
  3
AcDbVariableDictionary
350
E7
  3
QCAD_OBJECTS
350
E8
  0
DICTIONARY
  5
D
100
AcDbDictionary
280
0
281
1
  0
ACDBDICTIONARYWDFLT
  5
E
100
AcDbDictionary
281
1
  3
Normal
350
F
100
AcDbDictionaryWithDefault
340
F
  0
ACDBPLACEHOLDER
  5
F
  0
DICTIONARY
  5
17
100
AcDbDictionary
280
0
281
1
  3
Standard
350
18
  0
MLINESTYLE
  5
18
100
AcDbMlineStyle
  2
STANDARD
 70
0
  3

 62
256
 51
90.0
 52
90.0
 71
2
 49
0.5
 62
256
  6
BYLAYER
 49
-0.5
 62
256
  6
BYLAYER
  0
DICTIONARY
  5
19
100
AcDbDictionary
280
0
281
1
  0
DICTIONARY
  5
1A
100
AcDbDictionary
281
1
  3
Layout1
350
1E
  3
Layout2
350
26
  3
Model
350
22
  0
LAYOUT
  5
1E
100
AcDbPlotSettings
  1

  2
none_device
  4

  6

 40
0.0
 41
0.0
 42
0.0
 43
0.0
 44
0.0
 45
0.0
 46
0.0
 47
0.0
 48
0.0
 49
0.0
140
0.0
141
0.0
142
1.0
143
1.0
 70
688
 72
0
 73
0
 74
5
  7

 75
16
147
1.0
148
0.0
149
0.0
100
AcDbLayout
  1
Layout1
 70
1
 71
1
 10
0.0
 20
0.0
 11
420.0
 21
297.0
 12
0.0
 22
0.0
 32
0.0
 14
100000000000000000000.0
 24
100000000000000000000.0
 34
100000000000000000000.0
 15
-100000000000000000000.0
 25
-100000000000000000000.0
 35
-100000000000000000000.0
146
0.0
 13
0.0
 23
0.0
 33
0.0
 16
1.0
 26
0.0
 36
0.0
 17
0.0
 27
1.0
 37
0.0
 76
0
330
1B
  0
LAYOUT
  5
22
100
AcDbPlotSettings
  1

  2
none_device
  4

  6

 40
0.0
 41
0.0
 42
0.0
 43
0.0
 44
0.0
 45
0.0
 46
0.0
 47
0.0
 48
0.0
 49
0.0
140
0.0
141
0.0
142
1.0
143
1.0
 70
1712
 72
0
 73
0
 74
0
  7

 75
0
147
1.0
148
0.0
149
0.0
100
AcDbLayout
  1
Model
 70
1
 71
0
 10
0.0
 20
0.0
 11
12.0
 21
9.0
 12
0.0
 22
0.0
 32
0.0
 14
0.0
 24
0.0
 34
0.0
 15
0.0
 25
0.0
 35
0.0
146
0.0
 13
0.0
 23
0.0
 33
0.0
 16
1.0
 26
0.0
 36
0.0
 17
0.0
 27
1.0
 37
0.0
 76
0
330
1F
  0
LAYOUT
  5
26
100
AcDbPlotSettings
  1

  2
none_device
  4

  6

 40
0.0
 41
0.0
 42
0.0
 43
0.0
 44
0.0
 45
0.0
 46
0.0
 47
0.0
 48
0.0
 49
0.0
140
0.0
141
0.0
142
1.0
143
1.0
 70
688
 72
0
 73
0
 74
5
  7

 75
16
147
1.0
148
0.0
149
0.0
100
AcDbLayout
  1
Layout2
 70
1
 71
2
 10
0.0
 20
0.0
 11
12.0
 21
9.0
 12
0.0
 22
0.0
 32
0.0
 14
0.0
 24
0.0
 34
0.0
 15
0.0
 25
0.0
 35
0.0
146
0.0
 13
0.0
 23
0.0
 33
0.0
 16
1.0
 26
0.0
 36
0.0
 17
0.0
 27
1.0
 37
0.0
 76
0
330
23
  0
DICTIONARY
  5
E7
100
AcDbDictionary
281
1
  3
DIMASSOC
350
EA
  3
HIDETEXT
350
E9
  0
DICTIONARYVAR
  5
E9
100
DictionaryVariables
280
0
  1
2
  0
DICTIONARYVAR
  5
EA
100
DictionaryVariables
280
0
  1
1
  0
DICTIONARY
  5
E8
100
AcDbDictionary
281
1
  3
Grid/DisplayGrid00
350
EB
  3
Grid/DisplayGrid01
350
EC
  3
Grid/DisplayGrid02
350
ED
  3
Grid/DisplayGrid03
350
EE
  3
Grid/GridSpacingX00
350
EF
  3
Grid/GridSpacingX01
350
F0
  3
Grid/GridSpacingX02
350
F1
  3
Grid/GridSpacingX03
350
F2
  3
Grid/GridSpacingY00
350
F3
  3
Grid/GridSpacingY01
350
F4
  3
Grid/GridSpacingY02
350
F5
  3
Grid/GridSpacingY03
350
F6
  3
Grid/IsometricGrid00
350
F7
  3
Grid/IsometricGrid01
350
F8
  3
Grid/IsometricGrid02
350
F9
  3
Grid/IsometricGrid03
350
FA
  3
Grid/IsometricProjection00
350
FB
  3
Grid/IsometricProjection01
350
FC
  3
Grid/IsometricProjection02
350
FD
  3
Grid/IsometricProjection03
350
FE
  3
Grid/MetaGridSpacingX00
350
FF
  3
Grid/MetaGridSpacingX01
350
100
  3
Grid/MetaGridSpacingX02
350
101
  3
Grid/MetaGridSpacingX03
350
102
  3
Grid/MetaGridSpacingY00
350
103
  3
Grid/MetaGridSpacingY01
350
104
  3
Grid/MetaGridSpacingY02
350
105
  3
Grid/MetaGridSpacingY03
350
106
  3
MultiPageSettings/Columns
350
107
  3
MultiPageSettings/GlueMarginsBottom
350
108
  3
MultiPageSettings/GlueMarginsLeft
350
109
  3
MultiPageSettings/GlueMarginsRight
350
10A
  3
MultiPageSettings/GlueMarginsTop
350
10B
  3
MultiPageSettings/PrintCropMarks
350
10C
  3
MultiPageSettings/Rows
350
10D
  3
PageSettings/OffsetX
350
10E
  3
PageSettings/OffsetY
350
10F
  3
PageSettings/PageOrientation
350
110
  3
PageSettings/PaperHeight
350
111
  3
PageSettings/PaperWidth
350
112
  3
PageSettings/Scale
350
113
  3
PageSettings/ShowPaperBorders
350
114
  3
UnitSettings/PaperUnit
350
115
  0
XRECORD
  5
EB
330
E8
100
AcDbXrecord
280
1
290
1
  0
XRECORD
  5
EC
330
E8
100
AcDbXrecord
280
1
290
1
  0
XRECORD
  5
ED
330
E8
100
AcDbXrecord
280
1
290
1
  0
XRECORD
  5
EE
330
E8
100
AcDbXrecord
280
1
290
1
  0
XRECORD
  5
EF
330
E8
100
AcDbXrecord
280
1
1000
auto
  0
XRECORD
  5
F0
330
E8
100
AcDbXrecord
280
1
1000
auto
  0
XRECORD
  5
F1
330
E8
100
AcDbXrecord
280
1
1000
auto
  0
XRECORD
  5
F2
330
E8
100
AcDbXrecord
280
1
1000
auto
  0
XRECORD
  5
F3
330
E8
100
AcDbXrecord
280
1
1000
auto
  0
XRECORD
  5
F4
330
E8
100
AcDbXrecord
280
1
1000
auto
  0
XRECORD
  5
F5
330
E8
100
AcDbXrecord
280
1
1000
auto
  0
XRECORD
  5
F6
330
E8
100
AcDbXrecord
280
1
1000
auto
  0
XRECORD
  5
F7
330
E8
100
AcDbXrecord
280
1
290
0
  0
XRECORD
  5
F8
330
E8
100
AcDbXrecord
280
1
290
0
  0
XRECORD
  5
F9
330
E8
100
AcDbXrecord
280
1
290
0
  0
XRECORD
  5
FA
330
E8
100
AcDbXrecord
280
1
290
0
  0
XRECORD
  5
FB
330
E8
100
AcDbXrecord
280
1
 90
0
  0
XRECORD
  5
FC
330
E8
100
AcDbXrecord
280
1
 90
0
  0
XRECORD
  5
FD
330
E8
100
AcDbXrecord
280
1
 90
0
  0
XRECORD
  5
FE
330
E8
100
AcDbXrecord
280
1
 90
0
  0
XRECORD
  5
FF
330
E8
100
AcDbXrecord
280
1
1000
auto
  0
XRECORD
  5
100
330
E8
100
AcDbXrecord
280
1
1000
auto
  0
XRECORD
  5
101
330
E8
100
AcDbXrecord
280
1
1000
auto
  0
XRECORD
  5
102
330
E8
100
AcDbXrecord
280
1
1000
auto
  0
XRECORD
  5
103
330
E8
100
AcDbXrecord
280
1
1000
auto
  0
XRECORD
  5
104
330
E8
100
AcDbXrecord
280
1
1000
auto
  0
XRECORD
  5
105
330
E8
100
AcDbXrecord
280
1
1000
auto
  0
XRECORD
  5
106
330
E8
100
AcDbXrecord
280
1
1000
auto
  0
XRECORD
  5
107
330
E8
100
AcDbXrecord
280
1
 90
1
  0
XRECORD
  5
108
330
E8
100
AcDbXrecord
280
1
 40
10.0
  0
XRECORD
  5
109
330
E8
100
AcDbXrecord
280
1
 40
10.0
  0
XRECORD
  5
10A
330
E8
100
AcDbXrecord
280
1
 40
10.0
  0
XRECORD
  5
10B
330
E8
100
AcDbXrecord
280
1
 40
10.0
  0
XRECORD
  5
10C
330
E8
100
AcDbXrecord
280
1
290
0
  0
XRECORD
  5
10D
330
E8
100
AcDbXrecord
280
1
 90
1
  0
XRECORD
  5
10E
330
E8
100
AcDbXrecord
280
1
 40
0.0
  0
XRECORD
  5
10F
330
E8
100
AcDbXrecord
280
1
 40
0.0
  0
XRECORD
  5
110
330
E8
100
AcDbXrecord
280
1
1000
Landscape
  0
XRECORD
  5
111
330
E8
100
AcDbXrecord
280
1
 40
297.0
  0
XRECORD
  5
112
330
E8
100
AcDbXrecord
280
1
 40
210.0
  0
XRECORD
  5
113
330
E8
100
AcDbXrecord
280
1
1000
1:1
  0
XRECORD
  5
114
330
E8
100
AcDbXrecord
280
1
290
1
  0
XRECORD
  5
115
330
E8
100
AcDbXrecord
280
1
 90
4
  0
IMAGEDEF
  5
5D
100
AcDbRasterImageDef
 90
0
  1
/Users/imelnikov/Downloads/mig3-1.gif
 10
720.0
 20
988.0
 11
1.0
 21
1.0
280
1
281
0
  0
ENDSEC
  0
EOF
