999
dxfrw 0.5.11
0
SECTION
2
HEADER
9
$ACADVER
1
AC1021
9
$HANDSEED
5
20000
9
$DWGCODEPAGE
3
ANSI_1252
9
$INSBASE
10
0
20
0
30
0
9
$EXTMIN
10
-181.106415505
20
-773.484951924
30
0
9
$EXTMAX
10
729.422520474
20
264.499002412
30
0
9
$LIMMIN
10
0
20
0
9
$LIMMAX
10
420
20
297
9
$ORTHOMODE
70
0
9
$LTSCALE
40
1
9
$TEXTSTYLE
7
STANDARD
9
$CLAYER
8
internal
9
$DIMASZ
40
2.5
9
$DIMLFAC
40
1
9
$DIMSCALE
40
1
9
$DIMEXO
40
0.625
9
$DIMEXE
40
1.25
9
$DIMTXT
40
2.5
9
$DIMTSZ
40
0
9
$DIMAUNIT
70
0
9
$DIMADEC
70
2
9
$DIMLUNIT
70
2
9
$DIMSTYLE
2
Standard
9
$DIMGAP
40
0.625
9
$DIMTIH
70
0
9
$LUNITS
70
2
9
$LUPREC
70
4
9
$AUNITS
70
0
9
$AUPREC
70
2
9
$SPLINESEGS
70
8
9
$GRIDMODE
70
0
9
$SNAPSTYLE
70
0
9
$GRIDUNIT
10
0
20
0
9
$PINSBASE
10
87.9660092494
20
287.794770865
30
0
9
$PLIMMIN
10
0
20
0
9
$PLIMMAX
10
841
20
594
9
$INSUNITS
70
4
9
$PSVPSCALE
40
1
0
ENDSEC
0
SECTION
2
CLASSES
0
ENDSEC
0
SECTION
2
TABLES
0
TABLE
2
VPORT
5
8
330
0
100
AcDbSymbolTable
70
1
0
VPORT
5
31
330
2
100
AcDbSymbolTableRecord
100
AcDbViewportTableRecord
2
*ACTIVE
70
0
10
0
20
0
11
1
21
1
12
428.460937115
22
199.08285967
13
0
23
0
14
10
24
10
15
10
25
10
16
0
26
0
36
1
17
0
27
0
37
0
40
755.525635144
41
1.3682487725
42
50
43
0
44
0
50
0
51
0
71
0
72
100
73
1
74
3
75
0
76
0
77
0
78
0
281
0
65
1
110
0
120
0
130
0
111
1
121
0
131
0
112
0
122
1
132
0
79
0
146
0
348
10020
60
7
61
5
292
1
282
1
141
0
142
0
63
250
421
3358443
0
ENDTAB
0
TABLE
2
LTYPE
5
5
330
0
100
AcDbSymbolTable
70
4
0
LTYPE
5
14
330
5
100
AcDbSymbolTableRecord
100
AcDbLinetypeTableRecord
2
ByBlock
70
0
3

72
65
73
0
40
0
0
LTYPE
5
15
330
5
100
AcDbSymbolTableRecord
100
AcDbLinetypeTableRecord
2
ByLayer
70
0
3

72
65
73
0
40
0
0
LTYPE
5
16
330
5
100
AcDbSymbolTableRecord
100
AcDbLinetypeTableRecord
2
Continuous
70
0
3
Solid line
72
65
73
0
40
0
0
LTYPE
5
32
330
5
100
AcDbSymbolTableRecord
100
AcDbLinetypeTableRecord
2
DOT
70
0
3
Dot . . . . . . . . . . . . . . . . . . . . . .
72
65
73
2
40
6.35
49
0
74
0
49
-6.35
74
0
0
LTYPE
5
33
330
5
100
AcDbSymbolTableRecord
100
AcDbLinetypeTableRecord
2
DOT2
70
0
3
Dot (.5x) .....................................
72
65
73
2
40
3.175
49
0
74
0
49
-3.175
74
0
0
LTYPE
5
34
330
5
100
AcDbSymbolTableRecord
100
AcDbLinetypeTableRecord
2
DOTX2
70
0
3
Dot (2x) .  .  .  .  .  .  .  .  .  .  .  .  .
72
65
73
2
40
12.7
49
0
74
0
49
-12.7
74
0
0
LTYPE
5
35
330
5
100
AcDbSymbolTableRecord
100
AcDbLinetypeTableRecord
2
DASHED
70
0
3
Dot . . . . . . . . . . . . . . . . . . . . . .
72
65
73
2
40
19.05
49
12.7
74
0
49
-6.35
74
0
0
LTYPE
5
36
330
5
100
AcDbSymbolTableRecord
100
AcDbLinetypeTableRecord
2
DASHED2
70
0
3
Dashed (.5x) _ _ _ _ _ _ _ _ _ _ _ _ _ _ _ _ _
72
65
73
2
40
9.525
49
6.35
74
0
49
-3.175
74
0
0
LTYPE
5
37
330
5
100
AcDbSymbolTableRecord
100
AcDbLinetypeTableRecord
2
DASHEDX2
70
0
3
Dashed (2x) ____  ____  ____  ____  ____  ___
72
65
73
2
40
38.1
49
25.4
74
0
49
-12.7
74
0
0
LTYPE
5
38
330
5
100
AcDbSymbolTableRecord
100
AcDbLinetypeTableRecord
2
DASHDOT
70
0
3
Dash dot __ . __ . __ . __ . __ . __ . __ . __
72
65
73
4
40
25.4
49
12.7
74
0
49
-6.35
74
0
49
0
74
0
49
-6.35
74
0
0
LTYPE
5
39
330
5
100
AcDbSymbolTableRecord
100
AcDbLinetypeTableRecord
2
DASHDOT2
70
0
3
Dash dot (.5x) _._._._._._._._._._._._._._._.
72
65
73
4
40
12.7
49
6.35
74
0
49
-3.175
74
0
49
0
74
0
49
-3.175
74
0
0
LTYPE
5
3A
330
5
100
AcDbSymbolTableRecord
100
AcDbLinetypeTableRecord
2
DASHDOTX2
70
0
3
Dash dot (2x) ____  .  ____  .  ____  .  ___
72
65
73
4
40
50.8
49
25.4
74
0
49
-12.7
74
0
49
0
74
0
49
-12.7
74
0
0
LTYPE
5
3B
330
5
100
AcDbSymbolTableRecord
100
AcDbLinetypeTableRecord
2
DIVIDE
70
0
3
Divide ____ . . ____ . . ____ . . ____ . . ____
72
65
73
6
40
31.75
49
12.7
74
0
49
-6.35
74
0
49
0
74
0
49
-6.35
74
0
49
0
74
0
49
-6.35
74
0
0
LTYPE
5
3C
330
5
100
AcDbSymbolTableRecord
100
AcDbLinetypeTableRecord
2
DIVIDE2
70
0
3
Divide (.5x) __..__..__..__..__..__..__..__.._
72
65
73
6
40
15.875
49
6.35
74
0
49
-3.175
74
0
49
0
74
0
49
-3.175
74
0
49
0
74
0
49
-3.175
74
0
0
LTYPE
5
3D
330
5
100
AcDbSymbolTableRecord
100
AcDbLinetypeTableRecord
2
DIVIDEX2
70
0
3
Divide (2x) ________  .  .  ________  .  .  _
72
65
73
6
40
63.5
49
25.4
74
0
49
-12.7
74
0
49
0
74
0
49
-12.7
74
0
49
0
74
0
49
-12.7
74
0
0
LTYPE
5
3E
330
5
100
AcDbSymbolTableRecord
100
AcDbLinetypeTableRecord
2
BORDER
70
0
3
Border __ __ . __ __ . __ __ . __ __ . __ __ .
72
65
73
6
40
44.45
49
12.7
74
0
49
-6.35
74
0
49
12.7
74
0
49
-6.35
74
0
49
0
74
0
49
-6.35
74
0
0
LTYPE
5
3F
330
5
100
AcDbSymbolTableRecord
100
AcDbLinetypeTableRecord
2
BORDER2
70
0
3
Border (.5x) __.__.__.__.__.__.__.__.__.__.__.
72
65
73
6
40
22.225
49
6.35
74
0
49
-3.175
74
0
49
6.35
74
0
49
-3.175
74
0
49
0
74
0
49
-3.175
74
0
0
LTYPE
5
40
330
5
100
AcDbSymbolTableRecord
100
AcDbLinetypeTableRecord
2
BORDERX2
70
0
3
Border (2x) ____  ____  .  ____  ____  .  ___
72
65
73
6
40
88.9
49
25.4
74
0
49
-12.7
74
0
49
25.4
74
0
49
-12.7
74
0
49
0
74
0
49
-12.7
74
0
0
LTYPE
5
41
330
5
100
AcDbSymbolTableRecord
100
AcDbLinetypeTableRecord
2
CENTER
70
0
3
Center ____ _ ____ _ ____ _ ____ _ ____ _ ____
72
65
73
4
40
50.8
49
31.75
74
0
49
-6.35
74
0
49
6.35
74
0
49
-6.35
74
0
0
LTYPE
5
42
330
5
100
AcDbSymbolTableRecord
100
AcDbLinetypeTableRecord
2
CENTER2
70
0
3
Center (.5x) ___ _ ___ _ ___ _ ___ _ ___ _ ___
72
65
73
4
40
28.575
49
19.05
74
0
49
-3.175
74
0
49
3.175
74
0
49
-3.175
74
0
0
LTYPE
5
43
330
5
100
AcDbSymbolTableRecord
100
AcDbLinetypeTableRecord
2
CENTERX2
70
0
3
Center (2x) ________  __  ________  __  _____
72
65
73
4
40
101.6
49
63.5
74
0
49
-12.7
74
0
49
12.7
74
0
49
-12.7
74
0
0
ENDTAB
0
TABLE
2
LAYER
5
2
330
0
100
AcDbSymbolTable
70
1
0
LAYER
5
10
330
2
100
AcDbSymbolTableRecord
100
AcDbLayerTableRecord
2
0
70
1
62
255
6
CONTINUOUS
370
0
390
F
0
LAYER
5
44
330
2
100
AcDbSymbolTableRecord
100
AcDbLayerTableRecord
2
fuselage
70
0
62
3
6
CONTINUOUS
370
0
390
F
0
LAYER
5
45
330
2
100
AcDbSymbolTableRecord
100
AcDbLayerTableRecord
2
fuselage2
70
0
62
3
6
CONTINUOUS
370
25
390
F
0
LAYER
5
46
330
2
100
AcDbSymbolTableRecord
100
AcDbLayerTableRecord
2
image2
70
1
62
255
6
CONTINUOUS
370
25
390
F
0
LAYER
5
47
330
2
100
AcDbSymbolTableRecord
100
AcDbLayerTableRecord
2
internal
70
0
62
1
6
CONTINUOUS
370
0
390
F
0
LAYER
5
48
330
2
100
AcDbSymbolTableRecord
100
AcDbLayerTableRecord
2
wing
70
0
62
4
6
CONTINUOUS
370
0
390
F
0
ENDTAB
0
TABLE
2
STYLE
5
3
330
0
100
AcDbSymbolTable
70
3
0
STYLE
5
49
330
2
100
AcDbSymbolTableRecord
100
AcDbTextStyleTableRecord
2
Standard
70
0
40
0
41
1
50
0
71
0
42
1
3
txt
4

0
ENDTAB
0
TABLE
2
VIEW
5
6
330
0
100
AcDbSymbolTable
70
0
0
ENDTAB
0
TABLE
2
UCS
5
7
330
0
100
AcDbSymbolTable
70
0
0
ENDTAB
0
TABLE
2
APPID
5
9
330
0
100
AcDbSymbolTable
70
1
0
APPID
5
12
330
9
100
AcDbSymbolTableRecord
100
AcDbRegAppTableRecord
2
ACAD
70
0
0
ENDTAB
0
TABLE
2
DIMSTYLE
5
A
330
0
100
AcDbSymbolTable
70
1
100
AcDbDimStyleTable
71
1
0
DIMSTYLE
105
4A
330
A
100
AcDbSymbolTableRecord
100
AcDbDimStyleTableRecord
2
Standard
70
0
40
1
41
2.5
42
0.625
43
0.38
44
1.25
45
0
46
0
47
0
48
0
140
2.5
141
0.09
142
0
143
25.4
144
1
145
0
146
1
147
0.625
148
0
71
0
72
0
73
0
74
1
75
0
76
0
77
0
78
0
79
0
170
0
171
2
172
0
173
0
174
0
175
0
176
0
177
0
178
0
179
0
271
4
272
4
273
2
274
2
275
0
276
0
277
2
278
46
279
0
280
0
281
0
282
0
283
1
284
0
285
0
286
0
288
0
289
3
340
Standard
341

371
-2
372
-2
0
ENDTAB
0
TABLE
2
BLOCK_RECORD
5
1
330
0
100
AcDbSymbolTable
70
2
0
BLOCK_RECORD
5
1F
330
1
100
AcDbSymbolTableRecord
100
AcDbBlockTableRecord
2
*Model_Space
70
0
280
1
281
0
0
BLOCK_RECORD
5
1E
330
1
100
AcDbSymbolTableRecord
100
AcDbBlockTableRecord
2
*Paper_Space
70
0
280
1
281
0
0
ENDTAB
0
ENDSEC
0
SECTION
2
BLOCKS
0
BLOCK
5
20
330
1F
100
AcDbEntity
8
0
100
AcDbBlockBegin
2
*Model_Space
70
0
10
0
20
0
30
0
3
*Model_Space
1

0
ENDBLK
5
21
330
1F
100
AcDbEntity
8
0
100
AcDbBlockEnd
0
BLOCK
5
1C
330
1B
100
AcDbEntity
8
0
100
AcDbBlockBegin
2
*Paper_Space
70
0
10
0
20
0
30
0
3
*Paper_Space
1

0
ENDBLK
5
1D
330
1F
100
AcDbEntity
8
0
100
AcDbBlockEnd
0
ENDSEC
0
SECTION
2
ENTITIES
0
LINE
5
4B
100
AcDbEntity
8
fuselage
6
ByLayer
62
256
370
-1
100
AcDbLine
10
729.422520474
20
-1.23544071052
11
-68.038868415
21
-0.0351215724437
0
LINE
5
4C
100
AcDbEntity
8
fuselage
6
ByLayer
62
256
370
-1
100
AcDbLine
10
-0.0267429554073
20
-24.858742896
11
-0.0267429554073
21
23.3455629149
0
ARC
5
4D
100
AcDbEntity
8
fuselage
6
ByLayer
62
256
370
-1
100
AcDbCircle
10
-18.4982718777
20
58.5823710676
40
39.7847964619
100
AcDbArc
50
297.664030967
51
315.48203099
0
ARC
5
4E
100
AcDbEntity
8
fuselage
6
ByLayer
62
256
370
-1
100
AcDbCircle
10
29.0651732495
20
8.23747570639
40
29.5380609477
100
AcDbArc
50
105.116982883
51
130.531209886
0
ARC
5
4F
100
AcDbEntity
8
fuselage
6
ByLayer
62
256
370
-1
100
AcDbCircle
10
304.39595636
20
-2622.5801681
40
2674.00164512
100
AcDbArc
50
92.1593120471
51
96.0690672799
0
ARC
5
50
100
AcDbEntity
8
fuselage
6
ByLayer
62
256
370
-1
100
AcDbCircle
10
-84.728219912
20
3049.466069
40
3116.02943007
100
AcDbArc
50
277.289300396
51
283.563964815
0
ARC
5
51
100
AcDbEntity
8
fuselage
6
ByLayer
62
256
370
-1
100
AcDbCircle
10
335.198763957
20
-2081.76249342
40
2148.26728258
100
AcDbArc
50
82.6865866805
51
90.2394908181
0
ARC
5
52
100
AcDbEntity
8
fuselage
6
ByLayer
62
256
370
-1
100
AcDbCircle
10
107.855283557
20
225.482754945
40
272.806815534
100
AcDbArc
50
246.720425549
51
274.446934478
0
LINE
5
53
100
AcDbEntity
8
fuselage
6
ByLayer
62
256
370
-1
100
AcDbLine
10
293.732212059
20
30.0494729946
11
327.187915695
21
66.0590471367
0
LINE
5
54
100
AcDbEntity
8
fuselage
6
ByLayer
62
256
370
-1
100
AcDbLine
10
610.348308107
20
114.32719971
11
570.045039175
21
54.0718174467
0
ARC
5
55
100
AcDbEntity
8
fuselage
6
ByLayer
62
256
370
-1
100
AcDbCircle
10
639.123323589
20
94.8129459857
40
34.9427064047
100
AcDbArc
50
79.2256489524
51
139.746610193
0
ARC
5
56
100
AcDbEntity
8
fuselage
6
ByLayer
62
256
370
-1
100
AcDbCircle
10
640.858326324
20
84.8002248076
40
44.880131618
100
AcDbArc
50
22.9829687287
51
83.5359072311
0
ARC
5
57
100
AcDbEntity
8
fuselage
6
ByLayer
62
256
370
-1
100
AcDbCircle
10
523.678205637
20
16.8633888863
40
180.398530458
100
AcDbArc
50
10.9049429561
51
28.1847816972
0
ARC
5
58
100
AcDbEntity
8
fuselage
6
ByLayer
62
256
370
-1
100
AcDbCircle
10
684.465449078
20
50.5985833927
40
16.609675772
100
AcDbArc
50
304.711426118
51
0.473423006371
0
LINE
5
59
100
AcDbEntity
8
fuselage
6
ByLayer
62
256
370
-1
100
AcDbLine
10
693.923720433
20
36.6895363115
11
636.972408137
21
17.2801204619
0
LINE
5
5A
100
AcDbEntity
8
fuselage
6
ByLayer
62
256
370
-1
100
AcDbLine
10
-1.23983144601
20
23.1540226269
11
-1.49521849666
21
-23.5818076427
0
LINE
5
5B
100
AcDbEntity
8
fuselage
6
ByLayer
62
256
370
-1
100
AcDbLine
10
203.938125049
20
49.2035017936
11
204.14243469
21
29.9983955844
0
LINE
5
5C
100
AcDbEntity
8
fuselage
6
ByLayer
62
256
370
-1
100
AcDbLine
10
203.938125049
20
30.0392575125
11
293.670919167
21
30.0392575125
0
ARC
5
5D
100
AcDbEntity
8
fuselage
6
ByLayer
62
256
370
-1
100
AcDbCircle
10
19.667260549
20
-65.0803926932
40
91.2004739062
100
AcDbArc
50
103.32505994
51
126.079800516
0
LINE
5
5E
100
AcDbEntity
8
fuselage
6
ByLayer
62
256
370
-1
100
AcDbLine
10
-34.2051919444
20
8.30071176089
11
-34.2051919444
21
-8.20750719336
0
ARC
5
5F
100
AcDbEntity
8
fuselage
6
ByLayer
62
256
370
-1
100
AcDbCircle
10
61.2807377494
20
144.706783813
40
179.862788407
100
AcDbArc
50
237.934927764
51
249.621138681
0
ARC
5
60
100
AcDbEntity
8
fuselage
6
ByLayer
62
256
370
-1
100
AcDbCircle
10
-181.783844708
20
-773.484951924
40
1
100
AcDbArc
50
0
51
47.3569229085
0
ARC
5
61
100
AcDbEntity
8
fuselage
6
ByLayer
62
256
370
-1
100
AcDbCircle
10
-181.783844708
20
-773.484951924
40
1
100
AcDbArc
50
0
51
46.8457742735
0
ARC
5
62
100
AcDbEntity
8
fuselage
6
ByLayer
62
256
370
-1
100
AcDbCircle
10
625.422020238
20
-258.171303897
40
328.366344301
100
AcDbArc
50
81.5984614931
51
96.4667804763
0
ARC
5
63
100
AcDbEntity
8
fuselage
6
ByLayer
62
256
370
-1
100
AcDbCircle
10
621.663204507
20
584.970755085
40
521.541522443
100
AcDbArc
50
267.049200326
51
275.728232853
0
ARC
5
64
100
AcDbEntity
8
fuselage
6
ByLayer
62
256
370
-1
100
AcDbCircle
10
595.821293418
20
81.794263762
40
17.8612888255
100
AcDbArc
50
239.830977536
51
266.770533996
0
LINE
5
65
100
AcDbEntity
8
fuselage
6
ByLayer
62
256
370
-1
100
AcDbLine
10
641.519405836
20
69.5403552653
11
641.360005401
21
63.9613400147
0
LINE
5
66
100
AcDbEntity
8
fuselage
6
ByLayer
62
256
370
-1
100
AcDbLine
10
203.765959213
20
49.4160502544
11
219.905253331
21
64.5590916487
0
LINE
5
67
100
AcDbEntity
8
fuselage
6
ByLayer
62
256
370
-1
100
AcDbLine
10
326.105793636
20
66.5515970953
11
232.2587871
21
67.1493487293
0
ARC
5
68
100
AcDbEntity
8
fuselage
6
ByLayer
62
256
370
-1
100
AcDbCircle
10
231.309725295
20
43.485724833
40
23.6914692909
100
AcDbArc
50
87.2218168938
51
118.226894477
0
LINE
5
69
100
AcDbEntity
8
fuselage
6
ByLayer
62
256
370
-1
100
AcDbLine
10
233.422410281
20
67.4043894265
11
233.422410281
21
30.0409272914
0
LINE
5
6A
100
AcDbEntity
8
fuselage
6
ByLayer
62
256
370
-1
100
AcDbLine
10
290.296485749
20
66.8943080321
11
290.296485749
21
30.2959679886
0
LINE
5
6B
100
AcDbEntity
8
fuselage
6
ByLayer
62
256
370
-1
100
AcDbLine
10
128.855724442
20
-41.2939557064
11
126.509350028
21
-41.2939557064
0
LINE
5
6C
100
AcDbEntity
8
wing
6
ByLayer
62
256
370
-1
100
AcDbLine
10
129.047004965
20
-41.0835471313
11
309.807099083
21
-41.0835471313
0
LINE
5
6D
100
AcDbEntity
8
fuselage
6
ByLayer
62
256
370
-1
100
AcDbLine
10
129.047004965
20
-41.0835471312
11
129.206405401
21
-46.9813632533
0
ARC
5
6E
100
AcDbEntity
8
wing
6
ByLayer
62
256
370
-1
100
AcDbCircle
10
181.707174526
20
-140.978399288
40
119.325060518
100
AcDbArc
50
80.6220269132
51
112.479426029
0
LINE
5
6F
100
AcDbEntity
8
wing
6
ByLayer
62
256
370
-1
100
AcDbLine
10
201.150795815
20
-23.5594617282
11
310.165750063
21
-39.6489432097
0
LINE
5
70
100
AcDbEntity
8
wing
6
ByLayer
62
256
370
-1
100
AcDbLine
10
310.165750063
20
-39.6489432097
11
310.365000608
21
-41.0436970223
0
ARC
5
71
100
AcDbEntity
8
wing
6
ByLayer
62
256
370
-1
100
AcDbCircle
10
139.34188674
20
-40.6940818224
40
10.3022460656
100
AcDbArc
50
110.453343505
51
182.166521443
0
LINE
5
72
100
AcDbEntity
8
internal
6
ByLayer
62
256
370
-1
100
AcDbLine
10
25.7033202614
20
36.6621002179
11
25.7033202614
21
-34.8688453159
0
LINE
5
73
100
AcDbEntity
8
fuselage
6
ByLayer
62
256
370
-1
100
AcDbLine
10
641.387503268
20
129.712104575
11
640.662231286
21
18.8730115904
0
LINE
5
74
100
AcDbEntity
8
fuselage
6
ByLayer
62
256
370
-1
100
AcDbLine
10
576.519495948
20
63.3776132462
11
640.95611925
21
63.7861974919
0
LINE
5
75
100
AcDbEntity
8
fuselage
6
ByLayer
62
256
370
-1
100
AcDbLine
10
204.032557734
20
49.4141350763
11
233.521638344
21
30.086832244
0
LINE
5
76
100
AcDbEntity
8
fuselage
6
ByLayer
62
256
370
-1
100
AcDbLine
10
293.456202179
20
29.9672819173
11
289.31179085
21
25.6634701526
0
LINE
5
77
100
AcDbEntity
8
wing
6
ByLayer
62
256
370
-1
100
AcDbLine
10
190.005319391
20
-41.2847128541
11
190.005319391
21
-26.1416714598
0
LINE
5
78
100
AcDbEntity
8
wing
6
ByLayer
62
256
370
-1
100
AcDbLine
10
190.005319391
20
-26.1416714598
11
182.832299783
21
-26.1416714598
0
LINE
5
79
100
AcDbEntity
8
wing
6
ByLayer
62
256
370
-1
100
AcDbLine
10
182.832299783
20
-26.1416714598
11
182.832299783
21
-41.1253124184
0
LINE
5
7A
100
AcDbEntity
8
internal
6
ByLayer
62
256
370
-1
100
AcDbLine
10
327.368644881
20
66.5496819174
11
327.368644881
21
-39.2523572986
0
LINE
5
7B
100
AcDbEntity
8
internal
6
ByLayer
62
256
370
-1
100
AcDbLine
10
327.368644881
20
-39.2523572986
11
319.398623095
21
-40.4478605666
0
LINE
5
7C
100
AcDbEntity
8
internal
6
ByLayer
62
256
370
-1
100
AcDbLine
10
319.597873639
20
57.9819084969
11
327.368644881
21
66.490519295
0
LINE
5
7D
100
AcDbEntity
8
internal
6
ByLayer
62
256
370
-1
100
AcDbLine
10
319.398623095
20
-40.4478605666
11
319.599897927
21
58.981906448
0
LINE
5
7E
100
AcDbEntity
8
internal
6
ByLayer
62
256
370
-1
100
AcDbLine
10
319.318166868
20
25.6060859957
11
25.6060859957
21
25.6060859957
0
LINE
5
7F
100
AcDbEntity
8
internal
6
ByLayer
62
256
370
-1
100
AcDbLine
10
25.4044444445
20
-20.1741176471
11
319.581786493
21
-20.1741176471
0
IMAGE
5
82
100
AcDbEntity
8
image2
6
ByLayer
62
256
370
-1
100
AcDbRasterImage
10
1122.768
20
-1162.416
30
0
11
0
21
0.339
31
0
12
-0.339
22
0
32
0
13
2544
23
3312
340
80
70
1
280
0
281
50
282
50
283
0
360
81
0
LINE
5
83
100
AcDbEntity
8
wing
6
ByLayer
62
256
370
-1
100
AcDbLine
10
293.025583595
20
-519.183082089
11
292.016889116
21
-586.94473707
0
LINE
5
84
100
AcDbEntity
8
wing
6
ByLayer
62
256
370
-1
100
AcDbLine
10
292.016889116
20
-586.94473707
11
289.910430734
21
-605.092686207
0
LINE
5
85
100
AcDbEntity
8
wing
6
ByLayer
62
256
370
-1
100
AcDbLine
10
289.910430734
20
-605.092686207
11
428.964157921
21
-630.868427212
0
LINE
5
86
100
AcDbEntity
8
wing
6
ByLayer
62
256
370
-1
100
AcDbLine
10
428.964157921
20
-630.868427212
11
432.465241983
21
-608.119004955
0
LINE
5
87
100
AcDbEntity
8
wing
6
ByLayer
62
256
370
-1
100
AcDbLine
10
432.465241983
20
-608.119004955
11
292.016889116
21
-586.94473707
0
LINE
5
88
100
AcDbEntity
8
wing
6
ByLayer
62
256
370
-1
100
AcDbLine
10
428.964157921
20
-630.868427212
11
696.174188291
21
-681.801557431
0
LINE
5
89
100
AcDbEntity
8
wing
6
ByLayer
62
256
370
-1
100
AcDbLine
10
293.025583595
20
-519.183082089
11
695.902794543
21
-489.989613204
0
LINE
5
8A
100
AcDbEntity
8
wing
6
ByLayer
62
256
370
-1
100
AcDbLine
10
695.902794543
20
-489.989613204
11
696.174188291
21
-681.801557431
0
LINE
5
8B
100
AcDbEntity
8
wing
6
ByLayer
62
256
370
-1
100
AcDbLine
10
696.174188291
20
-681.801557431
11
428.964157921
21
-630.868427212
0
LINE
5
8C
100
AcDbEntity
8
wing
6
ByLayer
62
256
370
-1
100
AcDbLine
10
293.025583595
20
-519.183082089
11
293.025583595
21
-519.183082089
0
ARC
5
8D
100
AcDbEntity
8
wing
6
ByLayer
62
256
370
-1
100
AcDbCircle
10
299.191744713
20
-533.550525847
40
15.6347364257
100
AcDbArc
50
113.227845307
51
176.863188077
0
ARC
5
8E
100
AcDbEntity
8
wing
6
ByLayer
62
256
370
-1
100
AcDbCircle
10
324.566104104
20
-548.306359998
40
44.0368936255
100
AcDbArc
50
157.974842146
51
180.885175413
0
ARC
5
8F
100
AcDbEntity
8
wing
6
ByLayer
62
256
370
-1
100
AcDbCircle
10
387.143127224
20
-552.174987531
40
106.534598924
100
AcDbArc
50
178.304428446
51
188.602204055
0
ARC
5
90
100
AcDbEntity
8
wing
6
ByLayer
62
256
370
-1
100
AcDbCircle
10
634.737972012
20
-511.788530804
40
357.328787459
100
AcDbArc
50
189.072362903
51
195.179417986
0
LINE
5
91
100
AcDbEntity
8
wing
6
ByLayer
62
256
370
-1
100
AcDbLine
10
266.10147121
20
-546.909744316
11
695.982469957
21
-546.301507869
0
LINE
5
92
100
AcDbEntity
8
wing
6
ByLayer
62
256
370
-1
100
AcDbLine
10
660
20
-490
11
660
21
-690
0
LINE
5
93
100
AcDbEntity
8
fuselage2
6
ByLayer
62
256
370
-1
100
AcDbLine
10
-37.3151271913
20
-147.732757857
11
708.05942023
21
-153.576328281
0
LINE
5
94
100
AcDbEntity
8
fuselage2
6
ByLayer
62
256
370
-1
100
AcDbLine
10
0.0499120678695
20
-122.261403616
11
-0.416878644496
21
-172.674800552
0
LINE
5
95
100
AcDbEntity
8
fuselage2
6
ByLayer
62
256
370
-1
100
AcDbLine
10
-0.416878644496
20
-172.674800552
11
-0.416878644496
21
-172.674800552
0
LINE
5
96
100
AcDbEntity
8
fuselage2
6
ByLayer
62
256
370
-1
100
AcDbLine
10
-0.416878644496
20
-172.674800552
11
10.0859123837
21
-176.642521607
0
LINE
5
97
100
AcDbEntity
8
fuselage2
6
ByLayer
62
256
370
-1
100
AcDbLine
10
10.0859123837
20
-176.642521607
11
28.290750166
21
-180.376847306
0
ARC
5
98
100
AcDbEntity
8
fuselage2
6
ByLayer
62
256
370
-1
100
AcDbCircle
10
37.9708803347
20
-86.944757789
40
93.9322110434
100
AcDbArc
50
245.878364045
51
264.084914693
0
ARC
5
99
100
AcDbEntity
8
fuselage2
6
ByLayer
62
256
370
-1
100
AcDbCircle
10
158.498266388
20
1290.39743986
40
1476.52666792
100
AcDbArc
50
264.940799485
51
268.837218925
0
LINE
5
9A
100
AcDbEntity
8
fuselage2
6
ByLayer
62
256
370
-1
100
AcDbLine
10
128.535162113
20
-185.825176635
11
314.321793998
21
-188.025108624
0
ARC
5
9B
100
AcDbEntity
8
fuselage2
6
ByLayer
62
256
370
-1
100
AcDbCircle
10
96.9607919863
20
4193.34179229
40
4386.75526165
100
AcDbArc
50
272.840133297
51
276.869812642
0
LINE
5
9C
100
AcDbEntity
8
fuselage2
6
ByLayer
62
256
370
-1
100
AcDbLine
10
621.677123908
20
-161.918762101
11
700.555403546
21
-154.076749832
0
LINE
5
9D
100
AcDbEntity
8
fuselage2
6
ByLayer
62
256
370
-1
100
AcDbLine
10
643.08413104
20
-158.782000213
11
643.08413104
21
-147.354963574
0
ARC
5
9E
100
AcDbEntity
8
fuselage2
6
ByLayer
62
256
370
-1
100
AcDbCircle
10
582.451385954
20
-152.91689141
40
2
100
AcDbArc
50
90
51
270
0
LINE
5
9F
100
AcDbEntity
8
fuselage2
6
ByLayer
62
256
370
-1
100
AcDbLine
10
129.644225804
20
-204.011060107
11
129.975833926
21
-102.583786664
0
LINE
5
A0
100
AcDbEntity
8
fuselage2
6
ByLayer
62
256
370
-1
100
AcDbLine
10
201.00309597
20
-175.847606006
11
201.339185283
21
-123.753762506
0
LINE
5
A1
100
AcDbEntity
8
fuselage2
6
ByLayer
62
256
370
-1
100
AcDbLine
10
297.41300972
20
-176.927664262
11
201.00309597
21
-175.847606006
0
ARC
5
A2
100
AcDbEntity
8
fuselage2
6
ByLayer
62
256
370
-1
100
AcDbCircle
10
287.478049063
20
-130.306587982
40
47.4662107251
100
AcDbArc
50
279.842139051
51
316.209548947
0
ARC
5
A3
100
AcDbEntity
8
fuselage2
6
ByLayer
62
256
370
-1
100
AcDbCircle
10
301.124977515
20
-149.590482971
40
23.8905010823
100
AcDbArc
50
311.326088187
51
320.094199755
0
ARC
5
A4
100
AcDbEntity
8
fuselage2
6
ByLayer
62
256
370
-1
100
AcDbCircle
10
296.164812016
20
-150.304523705
40
29.2929753912
100
AcDbArc
50
342.100887919
51
10.4722691628
0
ARC
5
A5
100
AcDbEntity
8
fuselage2
6
ByLayer
62
256
370
-1
100
AcDbCircle
10
311.451385954
20
-153.91689141
40
13.6014705087
100
AcDbArc
50
306.027373385
51
342.897271031
0
ARC
5
A6
100
AcDbEntity
8
fuselage2
6
ByLayer
62
256
370
-1
100
AcDbCircle
10
310.297481959
20
-160.021742843
40
10
100
AcDbArc
50
307.522072156
51
311.326088187
0
ARC
5
A7
100
AcDbEntity
8
fuselage2
6
ByLayer
62
256
370
-1
100
AcDbCircle
10
297.300989032
20
-186.92703681
40
10
100
AcDbArc
50
89.3581553115
51
99.8421390512
0
ARC
5
A8
100
AcDbEntity
8
fuselage2
6
ByLayer
62
256
370
-1
100
AcDbCircle
10
297.300989032
20
-186.92703681
40
10
100
AcDbArc
50
89.3581553115
51
99.8421390512
0
ARC
5
A9
100
AcDbEntity
8
fuselage2
6
ByLayer
62
256
370
-1
100
AcDbCircle
10
314.523991325
20
-156.234062855
40
10
100
AcDbArc
50
316.209548947
51
342.100887919
0
LINE
5
AA
100
AcDbEntity
8
fuselage2
6
ByLayer
62
256
370
-1
100
AcDbLine
10
201.339185283
20
-123.753762506
11
294.544743872
21
-124.470284652
0
ARC
5
AB
100
AcDbEntity
8
fuselage2
6
ByLayer
62
256
370
-1
100
AcDbCircle
10
290.496258421
20
-174.368320781
40
50.0620039948
100
AcDbArc
50
71.4152324258
51
85.3614579801
0
ARC
5
AC
100
AcDbEntity
8
fuselage2
6
ByLayer
62
256
370
-1
100
AcDbCircle
10
299.79482877
20
-151.317742353
40
25.2925143135
100
AcDbArc
50
51.3990563649
51
74.7409918548
0
ARC
5
AD
100
AcDbEntity
8
fuselage2
6
ByLayer
62
256
370
-1
100
AcDbCircle
10
301.111239377
20
-153.091718361
40
25.9456331752
100
AcDbArc
50
38.4608653747
51
56.1203547106
0
ARC
5
AE
100
AcDbEntity
8
fuselage2
6
ByLayer
62
256
370
-1
100
AcDbCircle
10
313.898084661
20
-145.071931802
40
11.0721490998
100
AcDbArc
50
0.474469385358
51
47.153641802
0
ARC
5
AF
100
AcDbEntity
8
fuselage2
6
ByLayer
62
256
370
-1
100
AcDbCircle
10
29.769284747
20
-190.493675761
40
74.4236795285
100
AcDbArc
50
95.0071987835
51
113.536102666
0
LINE
5
B0
100
AcDbEntity
8
fuselage2
6
ByLayer
62
256
370
-1
100
AcDbLine
10
23.2735185381
20
-116.354016362
11
130.096394706
21
-112.508283279
0
LINE
5
B1
100
AcDbEntity
8
fuselage2
6
ByLayer
62
256
370
-1
100
AcDbLine
10
130.096394706
20
-112.508283279
11
318.915399159
21
-114.012069279
0
ARC
5
B2
100
AcDbEntity
8
fuselage2
6
ByLayer
62
256
370
-1
100
AcDbCircle
10
95.0832529233
20
-3948.21585049
40
3840.73163154
100
AcDbArc
50
82.6646990247
51
86.6589938542
0
LINE
5
B3
100
AcDbEntity
8
fuselage2
6
ByLayer
62
256
370
-1
100
AcDbLine
10
585.451385954
20
-138.91689141
11
700.555403546
21
-154.076749832
0
LINE
5
B4
100
AcDbEntity
8
fuselage2
6
ByLayer
62
256
370
-1
100
AcDbLine
10
584.524559928
20
-155.915095932
11
587.090828312
21
-181.442713014
0
LINE
5
B5
100
AcDbEntity
8
fuselage2
6
ByLayer
62
256
370
-1
100
AcDbLine
10
584.659626685
20
-149.702025107
11
586.685628041
21
-129.44201155
0
LINE
5
B6
100
AcDbEntity
8
fuselage2
6
ByLayer
62
256
370
-1
100
AcDbLine
10
638.352444482
20
-182.996520987
11
638.585839838
21
-159.890380725
0
LINE
5
B7
100
AcDbEntity
8
fuselage2
6
ByLayer
62
256
370
-1
100
AcDbLine
10
638.451385954
20
-145.91689141
11
638.451385954
21
-134.91689141
0
LINE
5
B8
100
AcDbEntity
8
fuselage2
6
ByLayer
62
256
370
-1
100
AcDbLine
10
638.582327917
20
-160.238060926
11
661.378283383
21
-168.272074897
0
LINE
5
B9
100
AcDbEntity
8
fuselage2
6
ByLayer
62
256
370
-1
100
AcDbLine
10
638.451385954
20
-145.897294989
11
659.977911246
21
-138.304111163
0
IMAGE
5
BC
100
AcDbEntity
8
0
6
ByLayer
62
256
370
-1
100
AcDbRasterImage
10
-229.327743869
20
589.662820855
30
0
11
0
21
-0.335
31
0
12
0.335
22
0
32
0
13
0
23
0
340
BA
70
1
280
0
281
50
282
50
283
0
360
BB
0
LINE
5
BD
100
AcDbEntity
8
fuselage
6
ByLayer
62
256
370
-1
100
AcDbLine
10
0
20
30
11
0
21
60
0
LINE
5
BE
100
AcDbEntity
8
fuselage
6
ByLayer
62
256
370
-1
100
AcDbLine
10
61.1958822407
20
45.5975285912
11
61.1958822407
21
65.3713018233
0
LINE
5
BF
100
AcDbEntity
8
fuselage
6
ByLayer
62
256
370
-1
100
AcDbLine
10
128.933697809
20
77.2978045242
11
129.042615642
21
52.2856021867
0
LINE
5
C0
100
AcDbEntity
8
fuselage
6
ByLayer
62
256
370
-1
100
AcDbLine
10
201.354720864
20
83.3477233503
11
201.192640755
21
52.5525027429
0
LINE
5
C1
100
AcDbEntity
8
fuselage
6
ByLayer
62
256
370
-1
100
AcDbLine
10
288.418954158
20
93.2112128022
11
288.644065419
21
71.1503091507
0
LINE
5
C2
100
AcDbEntity
8
fuselage
6
ByLayer
62
256
370
-1
100
AcDbLine
10
364.841351277
20
90.190992539
11
365.003431386
21
69.6068187645
0
LINE
5
C3
100
AcDbEntity
8
fuselage
6
ByLayer
62
256
370
-1
100
AcDbLine
10
440.694842037
20
86.7873102613
11
440.532761928
21
66.0410563784
0
LINE
5
C4
100
AcDbEntity
8
fuselage
6
ByLayer
62
256
370
-1
100
AcDbLine
10
509.006314031
20
88.2366060483
11
509.006314031
21
62.174124608
0
LINE
5
C5
100
AcDbEntity
8
fuselage
6
ByLayer
62
256
370
-1
100
AcDbLine
10
590.305696434
20
3.24179717188
11
590.111200304
21
-12.3178932403
0
LINE
5
C6
100
AcDbEntity
8
fuselage
6
ByLayer
62
256
370
-1
100
AcDbLine
10
642.430659315
20
17.2455185428
11
642.041667055
21
0.907843610051
0
LINE
5
C7
100
AcDbEntity
8
fuselage
6
ByLayer
62
256
370
-1
100
AcDbLine
10
128.931748717
20
242.328717984
11
128.595659404
21
135.116227168
0
ARC
5
C8
100
AcDbEntity
8
fuselage
6
ByLayer
62
256
370
-1
100
AcDbCircle
10
131.712216002
20
200.048657056
40
35.6151343762
100
AcDbArc
50
77.0705290351
51
94.132060255
0
ARC
5
C9
100
AcDbEntity
8
fuselage
6
ByLayer
62
256
370
-1
100
AcDbCircle
10
138.297707738
20
219.721406673
40
15.1029032529
100
AcDbArc
50
49.7537878943
51
84.7442594201
0
ARC
5
CA
100
AcDbEntity
8
fuselage
6
ByLayer
62
256
370
-1
100
AcDbCircle
10
126.638276898
20
206.41054189
40
32.796973602
100
AcDbArc
50
21.7294967832
51
49.2304594853
0
ARC
5
CB
100
AcDbEntity
8
fuselage
6
ByLayer
62
256
370
-1
100
AcDbCircle
10
79.7164926587
20
186.233243917
40
83.8659572532
100
AcDbArc
50
4.55265167676
51
22.6668121149
0
ARC
5
CC
100
AcDbEntity
8
fuselage
6
ByLayer
62
256
370
-1
100
AcDbCircle
10
-400.397335788
20
156.925061135
40
564.861294111
100
AcDbArc
50
0.518420408503
51
3.65052603241
0
ARC
5
CD
100
AcDbEntity
8
fuselage
6
ByLayer
62
256
370
-1
100
AcDbCircle
10
142.717599438
20
161.923381553
40
21.7235283518
100
AcDbArc
50
339.68717373
51
0.296866667326
0
ARC
5
CE
100
AcDbEntity
8
fuselage
6
ByLayer
62
256
370
-1
100
AcDbCircle
10
147.583257312
20
164.969616076
40
18.7765450951
100
AcDbArc
50
295.102306399
51
325.676394964
0
ARC
5
CF
100
AcDbEntity
8
fuselage
6
ByLayer
62
256
370
-1
100
AcDbCircle
10
141.640281256
20
174.899437855
40
30.3122890189
100
AcDbArc
50
270.759846426
51
297.31264051
0
LINE
5
D0
100
AcDbEntity
8
fuselage
6
ByLayer
62
256
370
-1
100
AcDbLine
10
128.622516014
20
143.683485709
11
142.042265652
21
144.589814398
0
LINE
5
D1
100
AcDbEntity
8
fuselage
6
ByLayer
62
256
370
-1
100
AcDbLine
10
116.779519766
20
190.436273951
11
163.474239833
21
190.348522823
0
LINE
5
D2
100
AcDbEntity
8
fuselage
6
ByLayer
62
256
370
-1
100
AcDbLine
10
128.967062401
20
242.328598681
11
128.578743588
21
135.116284316
0
ARC
5
D3
100
AcDbEntity
8
fuselage
6
ByLayer
62
256
370
-1
100
AcDbCircle
10
125.900985758
20
200.068289591
40
35.6151343762
100
AcDbArc
50
85.4808075725
51
102.542338792
0
ARC
5
D4
100
AcDbEntity
8
fuselage
6
ByLayer
62
256
370
-1
100
AcDbCircle
10
119.448566813
20
219.785086203
40
15.1029032529
100
AcDbArc
50
94.8686084074
51
129.859079933
0
ARC
5
D5
100
AcDbEntity
8
fuselage
6
ByLayer
62
256
370
-1
100
AcDbCircle
10
131.017794259
20
206.395746223
40
32.796973602
100
AcDbArc
50
130.382408342
51
157.883371044
0
ARC
5
D6
100
AcDbEntity
8
fuselage
6
ByLayer
62
256
370
-1
100
AcDbCircle
10
177.802175894
20
185.901873365
40
83.8659572532
100
AcDbArc
50
156.946055713
51
175.060216151
0
ARC
5
D7
100
AcDbEntity
8
fuselage
6
ByLayer
62
256
370
-1
100
AcDbCircle
10
657.707018963
20
153.350384261
40
564.861294111
100
AcDbArc
50
175.962341795
51
179.094447419
0
ARC
5
D8
100
AcDbEntity
8
fuselage
6
ByLayer
62
256
370
-1
100
AcDbCircle
10
114.638253266
20
162.018244209
40
21.7235283518
100
AcDbArc
50
179.31600116
51
199.925694098
0
ARC
5
D9
100
AcDbEntity
8
fuselage
6
ByLayer
62
256
370
-1
100
AcDbCircle
10
109.793288889
20
165.097284889
40
18.7765450951
100
AcDbArc
50
213.936472863
51
244.510561429
0
ARC
5
DA
100
AcDbEntity
8
fuselage
6
ByLayer
62
256
370
-1
100
AcDbCircle
10
115.803221911
20
174.986725217
40
30.3122890189
100
AcDbArc
50
242.300227317
51
268.853021402
0
LINE
5
DB
100
AcDbEntity
8
fuselage
6
ByLayer
62
256
370
-1
100
AcDbLine
10
128.609773813
20
143.683528757
11
115.196454275
21
144.680509706
0
LINE
5
DC
100
AcDbEntity
8
fuselage
6
ByLayer
62
256
370
-1
100
AcDbLine
10
140.768393338
20
190.355230459
11
94.0741462473
21
190.582982599
0
LINE
5
DD
100
AcDbEntity
8
fuselage
6
ByLayer
62
256
370
-1
100
AcDbLine
10
201.894727224
20
247.986708693
11
201.558637911
21
131.699806429
0
ARC
5
DE
100
AcDbEntity
8
fuselage
6
ByLayer
62
256
370
-1
100
AcDbCircle
10
191.687872966
20
-94.8719061043
40
334.531850705
100
AcDbArc
50
87.2807107179
51
88.1817522493
0
ARC
5
DF
100
AcDbEntity
8
fuselage
6
ByLayer
62
256
370
-1
100
AcDbCircle
10
205.358371928
20
225.782771995
40
13.67865231
100
AcDbArc
50
60.9906309677
51
80.7420826205
0
ARC
5
E0
100
AcDbEntity
8
fuselage
6
ByLayer
62
256
370
-1
100
AcDbCircle
10
-9.52259301824
20
-6.42451821236
40
329.677965143
100
AcDbArc
50
45.2817235194
51
47.785221638
0
ARC
5
E1
100
AcDbEntity
8
fuselage
6
ByLayer
62
256
370
-1
100
AcDbCircle
10
194.945878768
20
195.336423471
40
42.5734659148
100
AcDbArc
50
33.5034369824
51
49.7636416907
0
ARC
5
E2
100
AcDbEntity
8
fuselage
6
ByLayer
62
256
370
-1
100
AcDbCircle
10
142.953403443
20
176.915994472
40
97.0167800226
100
AcDbArc
50
16.6712668484
51
25.6005638086
0
ARC
5
E3
100
AcDbEntity
8
fuselage
6
ByLayer
62
256
370
-1
100
AcDbCircle
10
200.484873655
20
192.282846457
40
37.5375181734
100
AcDbArc
50
357.083660702
51
19.3948728829
0
LINE
5
E4
100
AcDbEntity
8
fuselage
6
ByLayer
62
256
370
-1
100
AcDbLine
10
237.973906522
20
190.375574755
11
237.662426686
21
144.775495225
0
LINE
5
E5
100
AcDbEntity
8
fuselage
6
ByLayer
62
256
370
-1
100
AcDbLine
10
237.662426686
20
144.775495225
11
201.445878768
21
143.836423471
0
LINE
5
E6
100
AcDbEntity
8
fuselage
6
ByLayer
62
256
370
-1
100
AcDbLine
10
201.857559571
20
247.986758812
11
201.880034515
21
131.699373042
0
ARC
5
E7
100
AcDbEntity
8
fuselage
6
ByLayer
62
256
370
-1
100
AcDbCircle
10
211.139724262
20
-94.8981359172
40
334.531850705
100
AcDbArc
50
91.6637270685
51
92.5647686
0
ARC
5
E8
100
AcDbEntity
8
fuselage
6
ByLayer
62
256
370
-1
100
AcDbCircle
10
198.334045857
20
225.792243934
40
13.67865231
100
AcDbArc
50
99.1033966974
51
118.85484835
0
ARC
5
E9
100
AcDbEntity
8
fuselage
6
ByLayer
62
256
370
-1
100
AcDbCircle
10
412.58799152
20
-6.99371244944
40
329.677965143
100
AcDbArc
50
132.06025768
51
134.563755798
0
ARC
5
EA
100
AcDbEntity
8
fuselage
6
ByLayer
62
256
370
-1
100
AcDbCircle
10
208.664390656
20
195.317924769
40
42.5734659148
100
AcDbArc
50
130.081837627
51
146.342042335
0
ARC
5
EB
100
AcDbEntity
8
fuselage
6
ByLayer
62
256
370
-1
100
AcDbCircle
10
260.606999008
20
176.757344699
40
97.0167800226
100
AcDbArc
50
154.244915509
51
163.174212469
0
ARC
5
EC
100
AcDbEntity
8
fuselage
6
ByLayer
62
256
370
-1
100
AcDbCircle
10
203.117180746
20
192.279296927
40
37.5375181734
100
AcDbArc
50
160.450606435
51
182.761818616
0
LINE
5
ED
100
AcDbEntity
8
fuselage
6
ByLayer
62
256
370
-1
100
AcDbLine
10
165.623140508
20
190.473136012
11
165.811640749
21
144.872382284
0
LINE
5
EE
100
AcDbEntity
8
fuselage
6
ByLayer
62
256
370
-1
100
AcDbLine
10
165.811640749
20
144.872382284
11
202.025524387
21
143.835641848
0
LINE
5
EF
100
AcDbEntity
8
fuselage
6
ByLayer
62
256
370
-1
100
AcDbLine
10
159.583053578
20
190.668287607
11
218.939471666
21
190.556741963
0
LINE
5
F0
100
AcDbEntity
8
internal
6
ByLayer
62
256
370
-1
100
AcDbLine
10
29.0829240571
20
37.2218020581
11
29.0829240571
21
-35.7388152277
0
LINE
5
F1
100
AcDbEntity
8
fuselage
6
ByLayer
62
256
370
-1
100
AcDbLine
10
288.668660934
20
262.975338149
11
288.332571621
21
142.655364129
0
ARC
5
F2
100
AcDbEntity
8
fuselage
6
ByLayer
62
256
370
-1
100
AcDbCircle
10
291.024794555
20
212.686846844
40
44.1960322242
100
AcDbArc
50
82.5371373347
51
92.3353222423
0
ARC
5
F3
100
AcDbEntity
8
fuselage
6
ByLayer
62
256
370
-1
100
AcDbCircle
10
295.558285243
20
243.158157358
40
13.4047857838
100
AcDbArc
50
60.4573421618
51
84.8346085657
0
ARC
5
F4
100
AcDbEntity
8
fuselage
6
ByLayer
62
256
370
-1
100
AcDbCircle
10
298.897330971
20
247.974292974
40
7.58696456792
100
AcDbArc
50
20.696116137
51
64.4648654297
0
ARC
5
F5
100
AcDbEntity
8
fuselage
6
ByLayer
62
256
370
-1
100
AcDbCircle
10
-5029.79106016
20
-1603.00983006
40
5648.60028532
100
AcDbArc
50
18.7638108188
51
19.1573560399
0
ARC
5
F6
100
AcDbEntity
8
fuselage
6
ByLayer
62
256
370
-1
100
AcDbCircle
10
208.881009308
20
176.067535527
40
116.079655066
100
AcDbArc
50
3.86612627179
51
19.0538315573
0
LINE
5
F7
100
AcDbEntity
8
fuselage
6
ByLayer
62
256
370
-1
100
AcDbLine
10
324.696503721
20
183.894257321
11
324.72822837
21
146.457313778
0
LINE
5
F8
100
AcDbEntity
8
fuselage
6
ByLayer
62
256
370
-1
100
AcDbLine
10
324.72822837
20
146.457313778
11
288.343475484
21
146.558947166
0
LINE
5
F9
100
AcDbEntity
8
fuselage
6
ByLayer
62
256
370
-1
100
AcDbLine
10
261.899138719
20
189.904095818
11
324.147046902
21
189.787116336
0
LINE
5
FA
100
AcDbEntity
8
fuselage
6
ByLayer
62
256
370
-1
100
AcDbLine
10
288.278096379
20
262.975773959
11
288.345667725
21
142.655349516
0
ARC
5
FB
100
AcDbEntity
8
fuselage
6
ByLayer
62
256
370
-1
100
AcDbCircle
10
285.809740199
20
212.692666049
40
44.1960322242
100
AcDbArc
50
87.5368111153
51
97.3349960229
0
ARC
5
FC
100
AcDbEntity
8
fuselage
6
ByLayer
62
256
370
-1
100
AcDbCircle
10
281.344263382
20
243.174018037
40
13.4047857838
100
AcDbArc
50
95.037524792
51
119.414791196
0
ARC
5
FD
100
AcDbEntity
8
fuselage
6
ByLayer
62
256
370
-1
100
AcDbCircle
10
278.0159741
20
247.997593382
40
7.58696456792
100
AcDbArc
50
115.407267928
51
159.176017221
0
ARC
5
FE
100
AcDbEntity
8
fuselage
6
ByLayer
62
256
370
-1
100
AcDbCircle
10
5602.56026901
20
-1614.87391185
40
5648.60028532
100
AcDbArc
50
160.714777318
51
161.108322539
0
ARC
5
FF
100
AcDbEntity
8
fuselage
6
ByLayer
62
256
370
-1
100
AcDbCircle
10
367.871597862
20
175.890126289
40
116.079655066
100
AcDbArc
50
160.8183018
51
176.006007086
0
LINE
5
100
100
AcDbEntity
8
fuselage
6
ByLayer
62
256
370
-1
100
AcDbLine
10
252.073858689
20
183.975293112
11
251.95858639
21
146.538513595
0
LINE
5
101
100
AcDbEntity
8
fuselage
6
ByLayer
62
256
370
-1
100
AcDbLine
10
251.95858639
20
146.538513595
11
288.343475484
21
146.558947166
0
LINE
5
102
100
AcDbEntity
8
fuselage
6
ByLayer
62
256
370
-1
100
AcDbLine
10
314.884479421
20
189.844972262
11
252.636465187
21
189.866911234
0
LINE
5
103
100
AcDbEntity
8
fuselage
6
ByLayer
62
256
370
-1
100
AcDbLine
10
364.677007716
20
262.283096646
11
364.340918404
21
151.709712701
0
ARC
5
104
100
AcDbEntity
8
fuselage
6
ByLayer
62
256
370
-1
100
AcDbCircle
10
365.070236931
20
187.275536015
40
32.416535114
100
AcDbArc
50
269.239683725
51
327.321858657
0
ARC
5
105
100
AcDbEntity
8
fuselage
6
ByLayer
62
256
370
-1
100
AcDbCircle
10
362.447642954
20
189.345705202
40
35.7432320859
100
AcDbArc
50
326.798465871
51
359.803045661
0
ARC
5
106
100
AcDbEntity
8
fuselage
6
ByLayer
62
256
370
-1
100
AcDbCircle
10
322.406636006
20
189.662769746
40
75.7853047626
100
AcDbArc
50
359.667397622
51
13.0129858696
0
ARC
5
107
100
AcDbEntity
8
fuselage
6
ByLayer
62
256
370
-1
100
AcDbCircle
10
251.425416176
20
177.789001271
40
147.683280919
100
AcDbArc
50
11.3002053339
51
19.4463985988
0
ARC
5
108
100
AcDbEntity
8
fuselage
6
ByLayer
62
256
370
-1
100
AcDbCircle
10
325.069990296
20
206.595122154
40
68.7005335214
100
AcDbArc
50
17.2401752521
51
34.1797323095
0
ARC
5
109
100
AcDbEntity
8
fuselage
6
ByLayer
62
256
370
-1
100
AcDbCircle
10
364.186424352
20
235.476816926
40
20.2060796555
100
AcDbArc
50
28.7329686767
51
58.6432557583
0
ARC
5
10A
100
AcDbEntity
8
fuselage
6
ByLayer
62
256
370
-1
100
AcDbCircle
10
369.321653144
20
246.61332105
40
8.14685403895
100
AcDbArc
50
48.6777870359
51
88.5809684254
0
ARC
5
10B
100
AcDbEntity
8
fuselage
6
ByLayer
62
256
370
-1
100
AcDbCircle
10
365.983825028
20
243.248861529
40
12.0408239901
100
AcDbArc
50
72.904525579
51
96.3335401198
0
LINE
5
10C
100
AcDbEntity
8
fuselage
6
ByLayer
62
256
370
-1
100
AcDbLine
10
343.020210491
20
189.767053458
11
398.191940766
21
189.663371895
0
LINE
5
10D
100
AcDbEntity
8
fuselage
6
ByLayer
62
256
370
-1
100
AcDbLine
10
364.655303578
20
262.283129286
11
364.65881146
21
151.709234624
0
ARC
5
10E
100
AcDbEntity
8
fuselage
6
ByLayer
62
256
370
-1
100
AcDbCircle
10
364.036470242
20
187.277090688
40
32.416535114
100
AcDbArc
50
212.505808243
51
270.587983176
0
ARC
5
10F
100
AcDbEntity
8
fuselage
6
ByLayer
62
256
370
-1
100
AcDbCircle
10
366.66527896
20
189.339362337
40
35.7432320859
100
AcDbArc
50
180.02462124
51
213.029201029
0
ARC
5
110
100
AcDbEntity
8
fuselage
6
ByLayer
62
256
370
-1
100
AcDbCircle
10
406.707058447
20
189.535991088
40
75.7853047626
100
AcDbArc
50
166.814681031
51
180.160269278
0
ARC
5
111
100
AcDbEntity
8
fuselage
6
ByLayer
62
256
370
-1
100
AcDbCircle
10
477.652243573
20
177.448780751
40
147.683280919
100
AcDbArc
50
160.381268301
51
168.527461566
0
ARC
5
112
100
AcDbEntity
8
fuselage
6
ByLayer
62
256
370
-1
100
AcDbCircle
10
404.094644919
20
206.476277676
40
68.7005335214
100
AcDbArc
50
145.647934591
51
162.587491648
0
ARC
5
113
100
AcDbEntity
8
fuselage
6
ByLayer
62
256
370
-1
100
AcDbCircle
10
365.065257453
20
235.475495256
40
20.2060796555
100
AcDbArc
50
121.184411142
51
151.094698224
0
ARC
5
114
100
AcDbEntity
8
fuselage
6
ByLayer
62
256
370
-1
100
AcDbCircle
10
359.963547993
20
246.627394622
40
8.14685403895
100
AcDbArc
50
91.2466984748
51
131.149879864
0
ARC
5
115
100
AcDbEntity
8
fuselage
6
ByLayer
62
256
370
-1
100
AcDbCircle
10
363.291241472
20
243.252910882
40
12.0408239901
100
AcDbArc
50
83.4941267804
51
106.923141321
0
LINE
5
116
100
AcDbEntity
8
fuselage
6
ByLayer
62
256
370
-1
100
AcDbLine
10
386.093890866
20
189.702275332
11
330.922098303
21
189.764538415
0
LINE
5
117
100
AcDbEntity
8
fuselage
6
ByLayer
62
256
370
-1
100
AcDbLine
10
440.508333248
20
159.594628704
11
440.741728604
21
259.48784115
0
ARC
5
118
100
AcDbEntity
8
fuselage
6
ByLayer
62
256
370
-1
100
AcDbCircle
10
436.240008396
20
188.867841307
40
63.0386717595
100
AcDbArc
50
79.2226170454
51
85.9213864118
0
ARC
5
119
100
AcDbEntity
8
fuselage
6
ByLayer
62
256
370
-1
100
AcDbCircle
10
441.700857999
20
237.975091378
40
14.2958028675
100
AcDbArc
50
34.3675022244
51
63.7316611821
0
ARC
5
11A
100
AcDbEntity
8
fuselage
6
ByLayer
62
256
370
-1
100
AcDbCircle
10
381.044045839
20
194.077143354
40
89.1666320596
100
AcDbArc
50
24.3536500827
51
35.6489869083
0
ARC
5
11B
100
AcDbEntity
8
fuselage
6
ByLayer
62
256
370
-1
100
AcDbCircle
10
267.633282556
20
163.615517613
40
205.927080979
100
AcDbArc
50
12.2833756037
51
19.0552590135
0
ARC
5
11C
100
AcDbEntity
8
fuselage
6
ByLayer
62
256
370
-1
100
AcDbCircle
10
414.259234767
20
196.310861268
40
55.7070382888
100
AcDbArc
50
356.912947879
51
11.509241413
0
ARC
5
11D
100
AcDbEntity
8
fuselage
6
ByLayer
62
256
370
-1
100
AcDbCircle
10
447.782997883
20
193.429707663
40
22.1027563007
100
AcDbArc
50
329.797843158
51
359.691919436
0
ARC
5
11E
100
AcDbEntity
8
fuselage
6
ByLayer
62
256
370
-1
100
AcDbCircle
10
443.298755866
20
193.961129105
40
26.3070362709
100
AcDbArc
50
310.675548739
51
333.713657656
0
ARC
5
11F
100
AcDbEntity
8
fuselage
6
ByLayer
62
256
370
-1
100
AcDbCircle
10
447.616183779
20
187.233988479
40
18.4245757648
100
AcDbArc
50
283.39806301
51
314.130049635
0
ARC
5
120
100
AcDbEntity
8
fuselage
6
ByLayer
62
256
370
-1
100
AcDbCircle
10
442.823699603
20
187.9004041
40
20.680574097
100
AcDbArc
50
264.62212059
51
295.987572347
0
LINE
5
121
100
AcDbEntity
8
fuselage
6
ByLayer
62
256
370
-1
100
AcDbLine
10
430.833100875
20
189.629351508
11
469.543763206
21
189.556604433
0
LINE
5
122
100
AcDbEntity
8
fuselage
6
ByLayer
62
256
370
-1
100
AcDbLine
10
440.770003165
20
159.594388837
11
440.719747785
21
259.4878613
0
ARC
5
123
100
AcDbEntity
8
fuselage
6
ByLayer
62
256
370
-1
100
AcDbCircle
10
445.091988995
20
188.859726895
40
63.0386717595
100
AcDbArc
50
93.9735701036
51
100.67233947
0
ARC
5
124
100
AcDbEntity
8
fuselage
6
ByLayer
62
256
370
-1
100
AcDbCircle
10
439.721179525
20
237.976906105
40
14.2958028675
100
AcDbArc
50
116.163295333
51
145.527454291
0
ARC
5
125
100
AcDbEntity
8
fuselage
6
ByLayer
62
256
370
-1
100
AcDbCircle
10
500.297409283
20
193.967826468
40
89.1666320596
100
AcDbArc
50
144.245969607
51
155.541306433
0
ARC
5
126
100
AcDbEntity
8
fuselage
6
ByLayer
62
256
370
-1
100
AcDbCircle
10
613.652135035
20
163.298329886
40
205.927080979
100
AcDbArc
50
160.839697502
51
167.611580912
0
ARC
5
127
100
AcDbEntity
8
fuselage
6
ByLayer
62
256
370
-1
100
AcDbCircle
10
467.086371371
20
196.262435816
40
55.7070382888
100
AcDbArc
50
168.385715102
51
182.982008636
0
ARC
5
128
100
AcDbEntity
8
fuselage
6
ByLayer
62
256
370
-1
100
AcDbCircle
10
433.557382421
20
193.442747966
40
22.1027563007
100
AcDbArc
50
180.20303708
51
210.097113357
0
ARC
5
129
100
AcDbEntity
8
fuselage
6
ByLayer
62
256
370
-1
100
AcDbCircle
10
438.042591185
20
193.965947313
40
26.3070362709
100
AcDbArc
50
206.181298859
51
229.219407776
0
ARC
5
12A
100
AcDbEntity
8
fuselage
6
ByLayer
62
256
370
-1
100
AcDbCircle
10
433.7128373
20
187.246733365
40
18.4245757648
100
AcDbArc
50
225.76490688
51
256.496893505
0
ARC
5
12B
100
AcDbEntity
8
fuselage
6
ByLayer
62
256
370
-1
100
AcDbCircle
10
438.506535198
20
187.904361548
40
20.680574097
100
AcDbArc
50
243.907384168
51
275.272835925
0
LINE
5
12C
100
AcDbEntity
8
fuselage
6
ByLayer
62
256
370
-1
100
AcDbLine
10
450.500283546
20
189.611323043
11
411.789552901
21
189.609546424
0
LINE
5
12D
100
AcDbEntity
8
fuselage
6
ByLayer
62
256
370
-1
100
AcDbLine
10
509.270265863
20
256.774570581
11
508.803475151
21
170.65168415
0
ARC
5
12E
100
AcDbEntity
8
fuselage
6
ByLayer
62
256
370
-1
100
AcDbCircle
10
510.000553954
20
243.28148668
40
4.59559571623
100
AcDbArc
50
57.4946443086
51
94.3427616962
0
ARC
5
12F
100
AcDbEntity
8
fuselage
6
ByLayer
62
256
370
-1
100
AcDbCircle
10
504.431311173
20
232.578799258
40
16.6478422773
100
AcDbArc
50
30.0134793664
51
61.1266975236
0
ARC
5
130
100
AcDbEntity
8
fuselage
6
ByLayer
62
256
370
-1
100
AcDbCircle
10
473.983010925
20
207.731521886
40
55.797075301
100
AcDbArc
50
12.9236884502
51
36.4811199129
0
ARC
5
131
100
AcDbEntity
8
fuselage
6
ByLayer
62
256
370
-1
100
AcDbCircle
10
492.436577665
20
206.678334623
40
38.3939768265
100
AcDbArc
50
357.148410514
51
20.6379099408
0
ARC
5
132
100
AcDbEntity
8
fuselage
6
ByLayer
62
256
370
-1
100
AcDbCircle
10
503.253681312
20
204.917161085
40
27.5297343888
100
AcDbArc
50
336.109729963
51
359.690120576
0
ARC
5
133
100
AcDbEntity
8
fuselage
6
ByLayer
62
256
370
-1
100
AcDbCircle
10
512.105523027
20
199.835255858
40
17.4105890552
100
AcDbArc
50
313.784223983
51
339.605561467
0
ARC
5
134
100
AcDbEntity
8
fuselage
6
ByLayer
62
256
370
-1
100
AcDbCircle
10
507.500968387
20
206.133841883
40
25.165206117
100
AcDbArc
50
291.122708993
51
311.429342799
0
ARC
5
135
100
AcDbEntity
8
fuselage
6
ByLayer
62
256
370
-1
100
AcDbCircle
10
512.612285728
20
191.552556828
40
9.73385452283
100
AcDbArc
50
265.554667352
51
293.988827352
0
ARC
5
136
100
AcDbEntity
8
fuselage
6
ByLayer
62
256
370
-1
100
AcDbCircle
10
509.853553838
20
205.6368993
40
23.8731988331
100
AcDbArc
50
267.623939471
51
274.815953064
0
LINE
5
137
100
AcDbEntity
8
fuselage
6
ByLayer
62
256
370
-1
100
AcDbLine
10
498.395089914
20
189.644078138
11
526.183923828
21
189.591855927
0
LINE
5
138
100
AcDbEntity
8
fuselage
6
ByLayer
62
256
370
-1
100
AcDbLine
10
509.03551131
20
256.775475513
11
508.838325168
21
170.65154981
0
ARC
5
139
100
AcDbEntity
8
fuselage
6
ByLayer
62
256
370
-1
100
AcDbCircle
10
508.201220213
20
243.28842275
40
4.59559571623
100
AcDbArc
50
85.2155130545
51
122.063630442
0
ARC
5
13A
100
AcDbEntity
8
fuselage
6
ByLayer
62
256
370
-1
100
AcDbCircle
10
513.68778529
20
232.54311741
40
16.6478422773
100
AcDbArc
50
118.431577227
51
149.544795384
0
ARC
5
13B
100
AcDbEntity
8
fuselage
6
ByLayer
62
256
370
-1
100
AcDbCircle
10
543.943620982
20
207.46183779
40
55.797075301
100
AcDbArc
50
143.077154838
51
166.634586301
0
ARC
5
13C
100
AcDbEntity
8
fuselage
6
ByLayer
62
256
370
-1
100
AcDbCircle
10
525.482483125
20
206.550949297
40
38.3939768265
100
AcDbArc
50
158.92036481
51
182.409864237
0
ARC
5
13D
100
AcDbEntity
8
fuselage
6
ByLayer
62
256
370
-1
100
AcDbCircle
10
514.652123208
20
204.873222382
40
27.5297343888
100
AcDbArc
50
179.868154175
51
203.448544787
0
ARC
5
13E
100
AcDbEntity
8
fuselage
6
ByLayer
62
256
370
-1
100
AcDbCircle
10
505.761365691
20
199.85971131
40
17.4105890552
100
AcDbArc
50
199.952713284
51
225.774050768
0
ARC
5
13F
100
AcDbEntity
8
fuselage
6
ByLayer
62
256
370
-1
100
AcDbCircle
10
510.414342336
20
206.122611412
40
25.165206117
100
AcDbArc
50
228.128931952
51
248.435565758
0
ARC
5
140
100
AcDbEntity
8
fuselage
6
ByLayer
62
256
370
-1
100
AcDbCircle
10
505.190762718
20
191.581165308
40
9.73385452283
100
AcDbArc
50
245.569447399
51
274.003607399
0
ARC
5
141
100
AcDbEntity
8
fuselage
6
ByLayer
62
256
370
-1
100
AcDbCircle
10
508.05799563
20
205.643820816
40
23.8731988331
100
AcDbArc
50
264.742321687
51
271.93433528
0
LINE
5
142
100
AcDbEntity
8
fuselage
6
ByLayer
62
256
370
-1
100
AcDbLine
10
519.392822633
20
189.563136098
11
491.604411955
21
189.725152998
0
LINE
5
143
100
AcDbEntity
8
fuselage
6
ByLayer
62
256
370
-1
100
AcDbLine
10
640.837395797
20
184.398403987
11
641.071560494
21
260.08799934
0
ARC
5
144
100
AcDbEntity
8
fuselage
6
ByLayer
62
256
370
-1
100
AcDbCircle
10
552.187776553
20
222.062890161
40
95.1432520466
100
AcDbArc
50
1.89393389019
51
10.9755444119
0
ARC
5
145
100
AcDbEntity
8
fuselage
6
ByLayer
62
256
370
-1
100
AcDbCircle
10
615.924548145
20
220.41205602
40
31.7190719316
100
AcDbArc
50
354.625306459
51
8.69525827941
0
ARC
5
146
100
AcDbEntity
8
fuselage
6
ByLayer
62
256
370
-1
100
AcDbCircle
10
637.608155516
20
218.249598836
40
9.92899172407
100
AcDbArc
50
330.689731451
51
355.328621965
0
ARC
5
147
100
AcDbEntity
8
fuselage
6
ByLayer
62
256
370
-1
100
AcDbCircle
10
642.8191497
20
216.154116451
40
4.41895493847
100
AcDbArc
50
244.594062511
51
321.263032207
0
LINE
5
148
100
AcDbEntity
8
fuselage
6
ByLayer
62
256
370
-1
100
AcDbLine
10
645.590719338
20
240.177212924
11
641.010005339
21
240.191384509
0
LINE
5
149
100
AcDbEntity
8
fuselage
6
ByLayer
62
256
370
-1
100
AcDbLine
10
640.862683354
20
184.398337269
11
641.027909954
21
260.088114506
0
ARC
5
14A
100
AcDbEntity
8
fuselage
6
ByLayer
62
256
370
-1
100
AcDbCircle
10
729.709811025
20
221.594525455
40
95.1432520466
100
AcDbArc
50
168.722124007
51
177.803734529
0
ARC
5
14B
100
AcDbEntity
8
fuselage
6
ByLayer
62
256
370
-1
100
AcDbCircle
10
665.965215869
20
220.28003138
40
31.7190719316
100
AcDbArc
50
171.002410139
51
185.07236196
0
ARC
5
14C
100
AcDbEntity
8
fuselage
6
ByLayer
62
256
370
-1
100
AcDbCircle
10
644.270499824
20
218.23202126
40
9.92899172407
100
AcDbArc
50
184.369046454
51
209.007936967
0
ARC
5
14D
100
AcDbEntity
8
fuselage
6
ByLayer
62
256
370
-1
100
AcDbCircle
10
639.048521044
20
216.164064677
40
4.41895493847
100
AcDbArc
50
218.434636212
51
295.103605908
0
LINE
5
14E
100
AcDbEntity
8
fuselage
6
ByLayer
62
256
370
-1
100
AcDbLine
10
636.403751633
20
240.201451332
11
640.984476639
21
240.191451862
0
LINE
5
14F
100
AcDbEntity
8
fuselage
6
ByLayer
62
256
370
-1
100
AcDbLine
10
589.216903642
20
183.477204885
11
589.663155563
21
264.499002412
0
ARC
5
150
100
AcDbEntity
8
fuselage
6
ByLayer
62
256
370
-1
100
AcDbCircle
10
590.503977472
20
237.634158377
40
4.31612680928
100
AcDbArc
50
26.5943584786
51
95.5527898509
0
ARC
5
151
100
AcDbEntity
8
fuselage
6
ByLayer
62
256
370
-1
100
AcDbCircle
10
579.991873946
20
226.942360774
40
19.1287130599
100
AcDbArc
50
16.813115027
51
41.2960931712
0
ARC
5
152
100
AcDbEntity
8
fuselage
6
ByLayer
62
256
370
-1
100
AcDbCircle
10
549.24657067
20
213.691507493
40
52.5295755203
100
AcDbArc
50
7.37230619906
51
20.9520299116
0
ARC
5
153
100
AcDbEntity
8
fuselage
6
ByLayer
62
256
370
-1
100
AcDbCircle
10
567.569901438
20
213.625263624
40
34.4510996075
100
AcDbArc
50
350.688122859
51
11.3951304934
0
ARC
5
154
100
AcDbEntity
8
fuselage
6
ByLayer
62
256
370
-1
100
AcDbCircle
10
593.931351655
20
208.160480775
40
7.63644742807
100
AcDbArc
50
331.882467567
51
359.176944233
0
ARC
5
155
100
AcDbEntity
8
fuselage
6
ByLayer
62
256
370
-1
100
AcDbCircle
10
596.177115627
20
205.16887921
40
4.53034214192
100
AcDbArc
50
291.706539614
51
352.295995501
0
ARC
5
156
100
AcDbEntity
8
fuselage
6
ByLayer
62
256
370
-1
100
AcDbCircle
10
590.179260676
20
212.082503251
40
13.5128169336
100
AcDbArc
50
278.224671128
51
304.601267822
0
ARC
5
157
100
AcDbEntity
8
fuselage
6
ByLayer
62
256
370
-1
100
AcDbCircle
10
590.076203202
20
206.760920991
40
8.30569695736
100
AcDbArc
50
264.634865852
51
284.190651367
0
LINE
5
158
100
AcDbEntity
8
fuselage
6
ByLayer
62
256
370
-1
100
AcDbLine
10
573.668068307
20
189.614241004
11
589.250543928
21
189.584957612
0
LINE
5
159
100
AcDbEntity
8
fuselage
6
ByLayer
62
256
370
-1
100
AcDbLine
10
589.250543928
20
189.584957612
11
622.01264229
21
189.523389385
0
LINE
5
15A
100
AcDbEntity
8
fuselage
6
ByLayer
62
256
370
-1
100
AcDbLine
10
589.20869289
20
183.477255627
11
589.763863746
21
264.498380037
0
ARC
5
15B
100
AcDbEntity
8
fuselage
6
ByLayer
62
256
370
-1
100
AcDbCircle
10
588.591070093
20
237.645980115
40
4.31612680928
100
AcDbArc
50
83.7390450836
51
152.697476456
0
ARC
5
15C
100
AcDbEntity
8
fuselage
6
ByLayer
62
256
370
-1
100
AcDbCircle
10
598.970225444
20
226.825074852
40
19.1287130599
100
AcDbArc
50
137.995741763
51
162.478719907
0
ARC
5
15D
100
AcDbEntity
8
fuselage
6
ByLayer
62
256
370
-1
100
AcDbCircle
10
629.549406462
20
213.195237197
40
52.5295755203
100
AcDbArc
50
158.339805023
51
171.919528735
0
ARC
5
15E
100
AcDbEntity
8
fuselage
6
ByLayer
62
256
370
-1
100
AcDbCircle
10
611.226656515
20
213.355465546
40
34.4510996075
100
AcDbArc
50
167.896704441
51
188.603712076
0
ARC
5
15F
100
AcDbEntity
8
fuselage
6
ByLayer
62
256
370
-1
100
AcDbCircle
10
584.799677857
20
208.21691438
40
7.63644742807
100
AcDbArc
50
180.114890701
51
207.409367368
0
ARC
5
160
100
AcDbEntity
8
fuselage
6
ByLayer
62
256
370
-1
100
AcDbCircle
10
582.517110728
20
205.253297831
40
4.53034214192
100
AcDbArc
50
186.995839433
51
247.585295321
0
ARC
5
161
100
AcDbEntity
8
fuselage
6
ByLayer
62
256
370
-1
100
AcDbCircle
10
588.599956472
20
212.092263326
40
13.5128169336
100
AcDbArc
50
234.690567112
51
261.067163807
0
ARC
5
162
100
AcDbEntity
8
fuselage
6
ByLayer
62
256
370
-1
100
AcDbCircle
10
588.637233992
20
206.769813798
40
8.30569695736
100
AcDbArc
50
255.101183568
51
274.656969082
0
LINE
5
163
100
AcDbEntity
8
fuselage
6
ByLayer
62
256
370
-1
100
AcDbLine
10
604.832191264
20
189.421647201
11
589.250543928
21
189.584957612
0
LINE
5
164
100
AcDbEntity
8
fuselage
6
ByLayer
62
256
370
-1
100
AcDbLine
10
589.250543928
20
189.584957612
11
556.490187031
21
189.928317156
0
LINE
5
165
100
AcDbEntity
8
fuselage
6
ByLayer
62
256
370
-1
100
AcDbLine
10
53.3854170519
20
240.90041875
11
53.3854170519
21
133.351838621
0
ARC
5
166
100
AcDbEntity
8
fuselage
6
ByLayer
62
256
370
-1
100
AcDbCircle
10
55.4850381452
20
197.120887352
40
34.2805553029
100
AcDbArc
50
74.3358168705
51
92.5909158319
0
ARC
5
167
100
AcDbEntity
8
fuselage
6
ByLayer
62
256
370
-1
100
AcDbCircle
10
53.6495079794
20
203.351302814
40
28.9831386808
100
AcDbArc
50
33.9751802082
51
67.5002891319
0
ARC
5
168
100
AcDbEntity
8
fuselage
6
ByLayer
62
256
370
-1
100
AcDbCircle
10
21.1363631396
20
186.114806759
40
65.6923862903
100
AcDbArc
50
3.73676281942
51
30.5930146349
0
ARC
5
169
100
AcDbEntity
8
fuselage
6
ByLayer
62
256
370
-1
100
AcDbCircle
10
-18.1934481646
20
179.646145335
40
105.43201107
100
AcDbArc
50
351.802961514
51
5.85213270103
0
ARC
5
16A
100
AcDbEntity
8
fuselage
6
ByLayer
62
256
370
-1
100
AcDbCircle
10
53.3329535341
20
172.005714879
40
33.6503769353
100
AcDbArc
50
319.037013117
51
347.31060589
0
ARC
5
16B
100
AcDbEntity
8
fuselage
6
ByLayer
62
256
370
-1
100
AcDbCircle
10
112.203550093
20
142.4842221
40
34.281881496
100
AcDbArc
50
167.429267618
51
183.680196544
0
LINE
5
16C
100
AcDbEntity
8
fuselage
6
ByLayer
62
256
370
-1
100
AcDbLine
10
77.9923625227
20
140.283757626
11
53.3854170519
21
140.283757626
0
LINE
5
16D
100
AcDbEntity
8
fuselage
6
ByLayer
62
256
370
-1
100
AcDbLine
10
49.1652203409
20
190.430270353
11
90.638317097
21
190.352331969
0
LINE
5
16E
100
AcDbEntity
8
fuselage
6
ByLayer
62
256
370
-1
100
AcDbLine
10
47.3012538149
20
190.433773215
11
49.1652203409
21
190.430270353
0
LINE
5
16F
100
AcDbEntity
8
fuselage
6
ByLayer
62
256
370
-1
100
AcDbLine
10
53.2307109946
20
240.900299813
11
53.3960754245
21
133.351846815
0
ARC
5
170
100
AcDbEntity
8
fuselage
6
ByLayer
62
256
370
-1
100
AcDbCircle
10
51.1984068679
20
197.117591833
40
34.2805553029
100
AcDbArc
50
87.4971809857
51
105.752279947
0
ARC
5
171
100
AcDbEntity
8
fuselage
6
ByLayer
62
256
370
-1
100
AcDbCircle
10
53.0243551084
20
203.350822203
40
28.9831386808
100
AcDbArc
50
112.587807686
51
146.112916609
0
ARC
5
172
100
AcDbEntity
8
fuselage
6
ByLayer
62
256
370
-1
100
AcDbCircle
10
85.5639639883
20
186.164338048
40
65.6923862903
100
AcDbArc
50
149.495082183
51
176.351333998
0
ARC
5
173
100
AcDbEntity
8
fuselage
6
ByLayer
62
256
370
-1
100
AcDbCircle
10
124.903674879
20
179.75615696
40
105.43201107
100
AcDbArc
50
174.235964117
51
188.285135303
0
ARC
5
174
100
AcDbEntity
8
fuselage
6
ByLayer
62
256
370
-1
100
AcDbCircle
10
53.3891054949
20
172.005758048
40
33.6503769353
100
AcDbArc
50
192.777490928
51
221.0510837
0
ARC
5
175
100
AcDbEntity
8
fuselage
6
ByLayer
62
256
370
-1
100
AcDbCircle
10
-5.43602985002
20
142.393781977
40
34.281881496
100
AcDbArc
50
356.407900274
51
12.6588291998
0
LINE
5
176
100
AcDbEntity
8
fuselage
6
ByLayer
62
256
370
-1
100
AcDbLine
10
28.7785006683
20
140.245922505
11
53.3854170519
21
140.283757626
0
LINE
5
177
100
AcDbEntity
8
fuselage
6
ByLayer
62
256
370
-1
100
AcDbLine
10
57.5285045533
20
190.436699961
11
16.0555766579
21
190.29499351
0
LINE
5
178
100
AcDbEntity
8
fuselage
6
ByLayer
62
256
370
-1
100
AcDbLine
10
59.3924634901
20
190.443068815
11
57.5285045533
21
190.436699961
0
LINE
5
179
100
AcDbEntity
8
fuselage
6
ByLayer
62
256
370
-1
100
AcDbLine
10
-34.5504601502
20
190.426180432
11
28.012123277
21
190.308609596
0
LINE
5
17A
100
AcDbEntity
8
fuselage
6
ByLayer
62
256
370
-1
100
AcDbLine
10
-5.99570220335
20
226.636190359
11
-6.50580072069
21
158.560210852
0
ARC
5
17B
100
AcDbEntity
8
fuselage
6
ByLayer
62
256
370
-1
100
AcDbCircle
10
-6.2135820257
20
190.404317534
40
22.9389922159
100
AcDbArc
50
269.847414686
51
89.9202181608
0
ARC
5
17C
100
AcDbEntity
8
fuselage
6
ByLayer
62
256
370
-1
100
AcDbCircle
10
-6.21383104278
20
190.271808889
40
22.9389922159
100
AcDbArc
50
269.86443572
51
89.9372391956
0
ARC
5
17D
100
AcDbEntity
8
fuselage
6
ByLayer
62
256
370
-1
100
AcDbCircle
10
-6.32973557895
20
190.271808889
40
22.9389922159
100
AcDbArc
50
90.0627608044
51
270.13556428
0
ARC
5
17E
100
AcDbEntity
8
fuselage
6
ByLayer
62
256
370
-1
100
AcDbCircle
10
-6.32998459603
20
190.404317534
40
22.9389922159
100
AcDbArc
50
90.0797818392
51
270.152585314
0
ENDSEC
0
SECTION
2
OBJECTS
0
DICTIONARY
5
C
330
0
100
AcDbDictionary
281
1
3
ACAD_GROUP
350
D
3
ACAD_IMAGE_DICT
350
17F
0
DICTIONARY
5
D
330
C
100
AcDbDictionary
281
1
0
IMAGEDEF_REACTOR
5
81
330
82
100
AcDbRasterImageDefReactor
90
2
330
82
0
IMAGEDEF_REACTOR
5
BB
330
BC
100
AcDbRasterImageDefReactor
90
2
330
BC
0
DICTIONARY
5
17F
330
C
100
AcDbDictionary
281
1
3
3347b024e67b
350
80
3

350
BA
0
IMAGEDEF
5
80
102
{ACAD_REACTORS
330
81
102
}
100
AcDbRasterImageDef
90
0
1
/Users/imelnikov/Desktop/-109/3347b024e67b.jpg
10
2544
20
3312
11
1
21
1
280
1
281
0
0
IMAGEDEF
5
BA
102
{ACAD_REACTORS
330
BB
102
}
100
AcDbRasterImageDef
90
0
1
/Users/imelnikov/Desktop/-109/
10
0
20
0
11
1
21
1
280
1
281
0
0
ENDSEC
0
EOF
